<?xml version="1.0" standalone="no"?>
<svg
  xmlns:xlink="http://www.w3.org/1999/xlink"
  xmlns:dc="http://purl.org/dc/elements/1.1/"
  xmlns:cc="http://creativecommons.org/ns#"
  xmlns:rdf="http://www.w3.org/1999/02/22-rdf-syntax-ns#"
  xmlns:svg="http://www.w3.org/2000/svg"
  xmlns="http://www.w3.org/2000/svg"
  version="1.1"
  preserveAspectRatio="none"
  width="630" height="632"
  viewBox="0 0 629.876 631.608">
  <defs>
    <linearGradient id="gradient0" gradientUnits="userSpaceOnUse" x1="598.573" y1="189.041" x2="41.7462" y2="568.471" spreadMethod="pad" gradientTransform="matrix(0.998627,0,0,1.00137,2.59921,3.14274)">
      <stop offset="0" stop-color="rgb(50,63,131)"/>
      <stop offset="1" stop-color="rgb(0,23,71)"/>
    </linearGradient>
    <linearGradient id="gradient1" gradientUnits="userSpaceOnUse" x1="317.177" y1="560.347" x2="328.569" y2="586.525" spreadMethod="pad" gradientTransform="matrix(1.63574,0,0,0.611345,2.59921,3.14274)">
      <stop offset="0" stop-color="rgb(13,10,108)"/>
      <stop offset="1" stop-color="rgb(21,18,58)"/>
    </linearGradient>
    <linearGradient id="gradient2" gradientUnits="userSpaceOnUse" x1="283.202" y1="575.121" x2="294.122" y2="600.212" spreadMethod="pad" gradientTransform="matrix(1.70545,0,0,0.586356,2.59921,3.14274)">
      <stop offset="0" stop-color="rgb(50,63,131)"/>
      <stop offset="1" stop-color="rgb(0,23,71)"/>
    </linearGradient>
    <linearGradient id="gradient3" gradientUnits="userSpaceOnUse" x1="278.161" y1="530.586" x2="289.777" y2="557.279" spreadMethod="pad" gradientTransform="matrix(1.60399,0,0,0.623444,2.59921,3.14274)">
      <stop offset="0" stop-color="rgb(50,63,131)"/>
      <stop offset="1" stop-color="rgb(0,23,71)"/>
    </linearGradient>
    <linearGradient id="gradient4" gradientUnits="userSpaceOnUse" x1="268.14" y1="492.638" x2="280.414" y2="520.844" spreadMethod="pad" gradientTransform="matrix(1.51872,0,0,0.658448,2.59921,3.14274)">
      <stop offset="0" stop-color="rgb(50,63,131)"/>
      <stop offset="1" stop-color="rgb(0,23,71)"/>
    </linearGradient>
    <linearGradient id="gradient5" gradientUnits="userSpaceOnUse" x1="245.725" y1="484.185" x2="257.999" y2="512.391" spreadMethod="pad" gradientTransform="matrix(1.51872,0,0,0.658448,2.59921,3.14274)">
      <stop offset="0" stop-color="rgb(50,63,131)"/>
      <stop offset="1" stop-color="rgb(0,23,71)"/>
    </linearGradient>
    <linearGradient id="gradient6" gradientUnits="userSpaceOnUse" x1="234.807" y1="445.475" x2="247.86" y2="475.47" spreadMethod="pad" gradientTransform="matrix(1.42912,0,0,0.699733,2.59921,3.14274)">
      <stop offset="0" stop-color="rgb(50,63,131)"/>
      <stop offset="1" stop-color="rgb(0,23,71)"/>
    </linearGradient>
    <linearGradient id="gradient7" gradientUnits="userSpaceOnUse" x1="215.694" y1="421.635" x2="229.132" y2="452.516" spreadMethod="pad" gradientTransform="matrix(1.3859,0,0,0.721554,2.59921,3.14274)">
      <stop offset="0" stop-color="rgb(13,10,108)"/>
      <stop offset="1" stop-color="rgb(21,18,58)"/>
    </linearGradient>
    <linearGradient id="gradient8" gradientUnits="userSpaceOnUse" x1="280.908" y1="278.733" x2="190.734" y2="240.179" spreadMethod="pad" gradientTransform="matrix(0.813516,0,0,1.22923,2.59921,3.14274)">
      <stop offset="0" stop-color="rgb(21,15,13)"/>
      <stop offset="1" stop-color="rgb(89,84,81)"/>
    </linearGradient>
    <linearGradient id="gradient9" gradientUnits="userSpaceOnUse" x1="169.114" y1="365.37" x2="163.184" y2="371.39" spreadMethod="pad" gradientTransform="matrix(1.26266,0,0,0.79198,2.59921,3.14274)">
      <stop offset="0" stop-color="rgb(255,255,255)" stop-opacity="0.247059"/>
      <stop offset="1" stop-color="rgb(255,255,255)" stop-opacity="0.0313726"/>
    </linearGradient>
    <linearGradient id="gradient10" gradientUnits="userSpaceOnUse" x1="213.219" y1="294.665" x2="198.084" y2="329.614" spreadMethod="pad" gradientTransform="matrix(0.918841,0,0,1.08833,2.59921,3.14274)">
      <stop offset="0" stop-color="rgb(0,0,0)" stop-opacity="0"/>
      <stop offset="1" stop-color="black"/>
    </linearGradient>
    <linearGradient id="gradient11" gradientUnits="userSpaceOnUse" x1="-147.724" y1="1593.63" x2="-147.403" y2="1580.26" spreadMethod="pad" gradientTransform="matrix(0.068918,-3.1665e-08,-4.47035e-08,0.068918,10.0908,-109.991)">
      <stop offset="0" stop-color="rgb(21,15,13)"/>
      <stop offset="1" stop-color="rgb(89,84,81)"/>
    </linearGradient>
    <linearGradient id="gradient12" gradientUnits="userSpaceOnUse" x1="238.84" y1="261.289" x2="233.826" y2="249.156" spreadMethod="pad" gradientTransform="matrix(0.862785,0,0,1.15904,2.59921,3.14274)">
      <stop offset="0" stop-color="rgb(21,15,13)"/>
      <stop offset="1" stop-color="rgb(89,84,81)"/>
    </linearGradient>
    <linearGradient id="gradient13" gradientUnits="userSpaceOnUse" x1="156.314" y1="403.913" x2="171.264" y2="438.266" spreadMethod="pad" gradientTransform="matrix(1.32856,0,0,0.752693,2.59921,3.14274)">
      <stop offset="0" stop-color="rgb(13,10,108)"/>
      <stop offset="1" stop-color="rgb(21,18,58)"/>
    </linearGradient>
    <linearGradient id="gradient14" gradientUnits="userSpaceOnUse" x1="118.727" y1="584.956" x2="109.47" y2="603.242" spreadMethod="pad" gradientTransform="matrix(1.97187,0,0,0.507132,2.59921,3.14274)">
      <stop offset="0" stop-color="rgb(255,255,255)" stop-opacity="0.247059"/>
      <stop offset="1" stop-color="rgb(255,255,255)" stop-opacity="0.0313726"/>
    </linearGradient>
    <linearGradient id="gradient15" gradientUnits="userSpaceOnUse" x1="183.735" y1="387.694" x2="204.732" y2="435.946" spreadMethod="pad" gradientTransform="matrix(1.31575,0,0,0.760021,2.59921,3.14274)">
      <stop offset="0" stop-color="rgb(13,10,108)"/>
      <stop offset="1" stop-color="rgb(21,18,58)"/>
    </linearGradient>
    <radialGradient id="gradient16" gradientUnits="userSpaceOnUse" cx="998.127" cy="760.782" fx="999.162" fy="760.305" r="32.9728" spreadMethod="pad" gradientTransform="matrix(0.032729,1.49012e-08,-2.98023e-08,0.032729,-32.0744,-25.3372)">
      <stop offset="0" stop-color="rgb(255,255,255)" stop-opacity="0.290196"/>
      <stop offset="1" stop-color="rgb(255,255,255)" stop-opacity="0.0196078"/>
    </radialGradient>
    <linearGradient id="gradient17" gradientUnits="userSpaceOnUse" x1="326.151" y1="241.724" x2="295.186" y2="265.771" spreadMethod="pad" gradientTransform="matrix(0.813517,0,0,1.22923,2.59921,3.14274)">
      <stop offset="0" stop-color="rgb(13,10,108)"/>
      <stop offset="1" stop-color="rgb(21,18,58)"/>
    </linearGradient>
    <linearGradient id="gradient18" gradientUnits="userSpaceOnUse" x1="202.367" y1="360.439" x2="207.598" y2="372.461" spreadMethod="pad" gradientTransform="matrix(1.19636,0,0,0.835869,2.59921,3.14274)">
      <stop offset="0" stop-color="rgb(13,10,108)"/>
      <stop offset="1" stop-color="rgb(21,18,58)"/>
    </linearGradient>
    <linearGradient id="gradient19" gradientUnits="userSpaceOnUse" x1="223.839" y1="360.066" x2="229.07" y2="372.087" spreadMethod="pad" gradientTransform="matrix(1.19636,0,0,0.835869,2.59921,3.14274)">
      <stop offset="0" stop-color="rgb(13,10,108)"/>
      <stop offset="1" stop-color="rgb(21,18,58)"/>
    </linearGradient>
    <linearGradient id="gradient20" gradientUnits="userSpaceOnUse" x1="193.839" y1="360.463" x2="198.677" y2="371.579" spreadMethod="pad" gradientTransform="matrix(1.26227,0,0,0.792224,2.59921,3.14274)">
      <stop offset="0" stop-color="rgb(13,10,108)"/>
      <stop offset="1" stop-color="rgb(21,18,58)"/>
    </linearGradient>
    <linearGradient id="gradient21" gradientUnits="userSpaceOnUse" x1="248.119" y1="294.872" x2="243.876" y2="303.254" spreadMethod="pad" gradientTransform="matrix(1.04459,0,0,0.957314,2.59921,3.14274)">
      <stop offset="0" stop-color="rgb(255,255,255)" stop-opacity="0.247059"/>
      <stop offset="1" stop-color="rgb(255,255,255)" stop-opacity="0.0313726"/>
    </linearGradient>
    <linearGradient id="gradient22" gradientUnits="userSpaceOnUse" x1="204.857" y1="367.776" x2="209.7" y2="378.905" spreadMethod="pad" gradientTransform="matrix(1.29581,0,0,0.771717,2.59921,3.14274)">
      <stop offset="0" stop-color="rgb(13,10,108)"/>
      <stop offset="1" stop-color="rgb(21,18,58)"/>
    </linearGradient>
    <linearGradient id="gradient23" gradientUnits="userSpaceOnUse" x1="238.275" y1="418.239" x2="158.814" y2="384.265" spreadMethod="pad" gradientTransform="matrix(1.26903,0,0,0.788005,2.59921,3.14274)">
      <stop offset="0" stop-color="rgb(42,39,65)"/>
      <stop offset="1" stop-color="rgb(26,23,87)"/>
    </linearGradient>
    <linearGradient id="gradient24" gradientUnits="userSpaceOnUse" x1="227.764" y1="368.246" x2="222.614" y2="378.42" spreadMethod="pad" gradientTransform="matrix(1.2371,0,0,0.808345,2.59921,3.14274)">
      <stop offset="0" stop-color="rgb(255,255,255)" stop-opacity="0.247059"/>
      <stop offset="1" stop-color="rgb(255,255,255)" stop-opacity="0.0313726"/>
    </linearGradient>
    <linearGradient id="gradient25" gradientUnits="userSpaceOnUse" x1="225.543" y1="348.42" x2="221.951" y2="355.516" spreadMethod="pad" gradientTransform="matrix(1.23887,0,0,0.807187,2.59921,3.14274)">
      <stop offset="0" stop-color="rgb(255,255,255)" stop-opacity="0.247059"/>
      <stop offset="1" stop-color="rgb(255,255,255)" stop-opacity="0.0313726"/>
    </linearGradient>
    <linearGradient id="gradient26" gradientUnits="userSpaceOnUse" x1="265.901" y1="136" x2="132.261" y2="283.905" spreadMethod="pad" gradientTransform="matrix(1.06065,0,0,0.942821,2.59921,3.14274)">
      <stop offset="0" stop-color="rgb(0,0,0)" stop-opacity="0.215686"/>
      <stop offset="1" stop-color="rgb(255,255,255)" stop-opacity="0.235294"/>
    </linearGradient>
    <linearGradient id="gradient27" gradientUnits="userSpaceOnUse" x1="381.604" y1="176.925" x2="-63.7878" y2="158.23" spreadMethod="pad" gradientTransform="matrix(1.06065,0,0,0.942821,2.59921,3.14274)">
      <stop offset="0" stop-color="rgb(0,0,0)" stop-opacity="0.215686"/>
      <stop offset="1" stop-color="rgb(255,255,255)" stop-opacity="0.235294"/>
    </linearGradient>
    <linearGradient id="gradient28" gradientUnits="userSpaceOnUse" x1="-161.784" y1="1562.72" x2="-136.799" y2="1597" spreadMethod="pad" gradientTransform="matrix(0.0683877,-6.70552e-08,-6.33299e-08,0.0694527,10.091,-109.991)">
      <stop offset="0" stop-color="rgb(0,29,36)"/>
      <stop offset="1" stop-color="rgb(55,131,129)"/>
    </linearGradient>
    <linearGradient id="gradient29" gradientUnits="userSpaceOnUse" x1="-171.213" y1="1468.87" x2="-154.724" y2="1460.72" spreadMethod="pad" gradientTransform="matrix(1.05499,0,0,0.8844,354.815,-992.583)">
      <stop offset="0" stop-color="rgb(0,0,0)" stop-opacity="0.215686"/>
      <stop offset="1" stop-color="rgb(255,255,255)" stop-opacity="0.235294"/>
    </linearGradient>
    <linearGradient id="gradient30" gradientUnits="userSpaceOnUse" x1="-173.978" y1="1408.89" x2="-160.259" y2="1402.12" spreadMethod="pad" gradientTransform="matrix(1.01305,0,0,0.921014,354.815,-992.583)">
      <stop offset="0" stop-color="rgb(0,0,0)" stop-opacity="0.215686"/>
      <stop offset="1" stop-color="rgb(255,255,255)" stop-opacity="0.235294"/>
    </linearGradient>
    <linearGradient id="gradient31" gradientUnits="userSpaceOnUse" x1="276.494" y1="331.914" x2="260.71" y2="341.713" spreadMethod="pad" gradientTransform="matrix(1.14623,0,0,0.872422,2.59921,3.14274)">
      <stop offset="0" stop-color="rgb(255,255,255)" stop-opacity="0.247059"/>
      <stop offset="1" stop-color="rgb(255,255,255)" stop-opacity="0.0313726"/>
    </linearGradient>
    <linearGradient id="gradient32" gradientUnits="userSpaceOnUse" x1="519.858" y1="53.6499" x2="307.704" y2="334.474" spreadMethod="pad" gradientTransform="matrix(0.684519,0,0,1.46088,2.59921,3.14274)">
      <stop offset="0" stop-color="rgb(0,0,0)" stop-opacity="0.215686"/>
      <stop offset="1" stop-color="rgb(255,255,255)" stop-opacity="0.235294"/>
    </linearGradient>
    <linearGradient id="gradient33" gradientUnits="userSpaceOnUse" x1="528.43" y1="84.1268" x2="139.348" y2="67.7954" spreadMethod="pad" gradientTransform="matrix(0.684519,0,0,1.46088,2.59921,3.14274)">
      <stop offset="0" stop-color="rgb(0,0,0)" stop-opacity="0.215686"/>
      <stop offset="1" stop-color="rgb(255,255,255)" stop-opacity="0.235294"/>
    </linearGradient>
    <linearGradient id="gradient34" gradientUnits="userSpaceOnUse" x1="133.753" y1="575.995" x2="140.905" y2="619.763" spreadMethod="pad" gradientTransform="matrix(1.80845,0,0,0.552959,2.59921,3.14274)">
      <stop offset="0" stop-color="rgb(0,0,0)" stop-opacity="0"/>
      <stop offset="1" stop-color="rgb(0,0,0)" stop-opacity="0.47451"/>
    </linearGradient>
    <linearGradient id="gradient35" gradientUnits="userSpaceOnUse" x1="326.025" y1="194.502" x2="729.766" y2="338.249" spreadMethod="pad" gradientTransform="matrix(0.449691,0,0,2.22375,2.59921,3.14274)">
      <stop offset="0" stop-color="rgb(0,0,0)" stop-opacity="0.215686"/>
      <stop offset="1" stop-color="rgb(255,255,255)" stop-opacity="0.235294"/>
    </linearGradient>
    <linearGradient id="gradient36" gradientUnits="userSpaceOnUse" x1="760.512" y1="174.337" x2="488.58" y2="162.923" spreadMethod="pad" gradientTransform="matrix(0.449691,0,0,2.22375,2.59921,3.14274)">
      <stop offset="0" stop-color="rgb(0,0,0)" stop-opacity="0.215686"/>
      <stop offset="1" stop-color="rgb(255,255,255)" stop-opacity="0.235294"/>
    </linearGradient>
    <linearGradient id="gradient37" gradientUnits="userSpaceOnUse" x1="119.715" y1="238.832" x2="328.676" y2="390.81" spreadMethod="pad" gradientTransform="matrix(0.724945,0,0,1.37942,2.59921,3.14274)">
      <stop offset="0" stop-color="rgb(0,0,0)" stop-opacity="0.215686"/>
      <stop offset="1" stop-color="rgb(255,255,255)" stop-opacity="0.235294"/>
    </linearGradient>
    <linearGradient id="gradient38" gradientUnits="userSpaceOnUse" x1="483.185" y1="273.346" x2="93.18" y2="256.976" spreadMethod="pad" gradientTransform="matrix(0.724945,0,0,1.37942,2.59921,3.14274)">
      <stop offset="0" stop-color="rgb(0,0,0)" stop-opacity="0.215686"/>
      <stop offset="1" stop-color="rgb(255,255,255)" stop-opacity="0.235294"/>
    </linearGradient>
    <linearGradient id="gradient39" gradientUnits="userSpaceOnUse" x1="-187.286" y1="1368.64" x2="-137.263" y2="1418.17" spreadMethod="pad" gradientTransform="matrix(0.055922,-5.02914e-08,1.71363e-07,0.0559664,9.34767,-77.9493)">
      <stop offset="0" stop-color="rgb(0,29,36)"/>
      <stop offset="1" stop-color="rgb(55,131,129)"/>
    </linearGradient>
    <linearGradient id="gradient40" gradientUnits="userSpaceOnUse" x1="-209.93" y1="1230.78" x2="-190.373" y2="1221.12" spreadMethod="pad" gradientTransform="matrix(0.933674,0,0,1.01664,368.008,-915.455)">
      <stop offset="0" stop-color="rgb(0,0,0)" stop-opacity="0.215686"/>
      <stop offset="1" stop-color="rgb(255,255,255)" stop-opacity="0.235294"/>
    </linearGradient>
    <linearGradient id="gradient41" gradientUnits="userSpaceOnUse" x1="-285.483" y1="838.194" x2="-273.421" y2="832.234" spreadMethod="pad" gradientTransform="matrix(0.635997,0,0,1.49247,368.008,-915.455)">
      <stop offset="0" stop-color="rgb(0,0,0)" stop-opacity="0.215686"/>
      <stop offset="1" stop-color="rgb(255,255,255)" stop-opacity="0.235294"/>
    </linearGradient>
    <linearGradient id="gradient42" gradientUnits="userSpaceOnUse" x1="183.039" y1="415.61" x2="179.056" y2="423.477" spreadMethod="pad" gradientTransform="matrix(1.39318,0,0,0.717781,2.59921,3.14274)">
      <stop offset="0" stop-color="rgb(255,255,255)" stop-opacity="0.247059"/>
      <stop offset="1" stop-color="rgb(255,255,255)" stop-opacity="0.0313726"/>
    </linearGradient>
    <linearGradient id="gradient43" gradientUnits="userSpaceOnUse" x1="382.507" y1="43.3077" x2="318.653" y2="96.1065" spreadMethod="pad" gradientTransform="matrix(0.64176,0,0,1.55822,2.59921,3.14274)">
      <stop offset="0" stop-color="rgb(255,255,255)" stop-opacity="0.290196"/>
      <stop offset="1" stop-color="rgb(255,255,255)" stop-opacity="0.0196078"/>
    </linearGradient>
    <linearGradient id="gradient44" gradientUnits="userSpaceOnUse" x1="187.629" y1="135.411" x2="121.656" y2="201.902" spreadMethod="pad" gradientTransform="matrix(1.0627,0,0,0.941002,2.59921,3.14274)">
      <stop offset="0" stop-color="rgb(255,255,255)" stop-opacity="0.290196"/>
      <stop offset="1" stop-color="rgb(255,255,255)" stop-opacity="0.0196078"/>
    </linearGradient>
    <linearGradient id="gradient45" gradientUnits="userSpaceOnUse" x1="459.71" y1="246.4" x2="309.831" y2="267.945" spreadMethod="pad" gradientTransform="matrix(0.638183,0,0,1.56695,2.59921,3.14274)">
      <stop offset="0" stop-color="rgb(255,255,255)" stop-opacity="0.290196"/>
      <stop offset="1" stop-color="rgb(255,255,255)" stop-opacity="0.0196078"/>
    </linearGradient>
    <linearGradient id="gradient46" gradientUnits="userSpaceOnUse" x1="743.305" y1="162.495" x2="638.031" y2="177.628" spreadMethod="pad" gradientTransform="matrix(0.419442,0,0,2.38412,2.59921,3.14274)">
      <stop offset="0" stop-color="rgb(255,255,255)" stop-opacity="0.290196"/>
      <stop offset="1" stop-color="rgb(255,255,255)" stop-opacity="0.0196078"/>
    </linearGradient>
    <linearGradient id="gradient47" gradientUnits="userSpaceOnUse" x1="327.878" y1="322.466" x2="320.762" y2="329.69" spreadMethod="pad" gradientTransform="matrix(1.05804,0,0,0.945146,2.59921,3.14274)">
      <stop offset="0" stop-color="rgb(255,255,255)" stop-opacity="0.247059"/>
      <stop offset="1" stop-color="rgb(255,255,255)" stop-opacity="0.0313726"/>
    </linearGradient>
    <linearGradient id="gradient48" gradientUnits="userSpaceOnUse" x1="303.101" y1="387.271" x2="283.65" y2="409.012" spreadMethod="pad" gradientTransform="matrix(1.1208,0,0,0.89222,2.59921,3.14274)">
      <stop offset="0" stop-color="rgb(255,255,255)" stop-opacity="0.290196"/>
      <stop offset="1" stop-color="rgb(255,255,255)" stop-opacity="0.0196078"/>
    </linearGradient>
    <linearGradient id="gradient49" gradientUnits="userSpaceOnUse" x1="372.899" y1="220.615" x2="370.962" y2="221.725" spreadMethod="pad" gradientTransform="matrix(0.823673,0,0,1.21407,2.59921,3.14274)">
      <stop offset="0" stop-color="rgb(255,255,255)" stop-opacity="0.247059"/>
      <stop offset="1" stop-color="rgb(255,255,255)" stop-opacity="0.0313726"/>
    </linearGradient>
    <linearGradient id="gradient50" gradientUnits="userSpaceOnUse" x1="363.802" y1="325.787" x2="356.612" y2="333.087" spreadMethod="pad" gradientTransform="matrix(1.047,0,0,0.955111,2.59921,3.14274)">
      <stop offset="0" stop-color="rgb(255,255,255)" stop-opacity="0.247059"/>
      <stop offset="1" stop-color="rgb(255,255,255)" stop-opacity="0.0313726"/>
    </linearGradient>
    <linearGradient id="gradient51" gradientUnits="userSpaceOnUse" x1="339.461" y1="390.617" x2="333.351" y2="396.821" spreadMethod="pad" gradientTransform="matrix(1.23212,0,0,0.811607,2.59921,3.14274)">
      <stop offset="0" stop-color="rgb(255,255,255)" stop-opacity="0.247059"/>
      <stop offset="1" stop-color="rgb(255,255,255)" stop-opacity="0.0313726"/>
    </linearGradient>
    <linearGradient id="gradient52" gradientUnits="userSpaceOnUse" x1="326.099" y1="447.999" x2="320.895" y2="453.281" spreadMethod="pad" gradientTransform="matrix(1.39094,0,0,0.718938,2.59921,3.14274)">
      <stop offset="0" stop-color="rgb(255,255,255)" stop-opacity="0.247059"/>
      <stop offset="1" stop-color="rgb(255,255,255)" stop-opacity="0.0313726"/>
    </linearGradient>
    <linearGradient id="gradient53" gradientUnits="userSpaceOnUse" x1="358.469" y1="451.034" x2="352.979" y2="456.608" spreadMethod="pad" gradientTransform="matrix(1.37118,0,0,0.729301,2.59921,3.14274)">
      <stop offset="0" stop-color="rgb(255,255,255)" stop-opacity="0.247059"/>
      <stop offset="1" stop-color="rgb(255,255,255)" stop-opacity="0.0313726"/>
    </linearGradient>
    <linearGradient id="gradient54" gradientUnits="userSpaceOnUse" x1="385.039" y1="461.329" x2="379.548" y2="466.904" spreadMethod="pad" gradientTransform="matrix(1.37134,0,0,0.729215,2.59921,3.14274)">
      <stop offset="0" stop-color="rgb(255,255,255)" stop-opacity="0.247059"/>
      <stop offset="1" stop-color="rgb(255,255,255)" stop-opacity="0.0313726"/>
    </linearGradient>
    <linearGradient id="gradient55" gradientUnits="userSpaceOnUse" x1="410.8" y1="472.448" x2="405.309" y2="478.023" spreadMethod="pad" gradientTransform="matrix(1.37134,0,0,0.729215,2.59921,3.14274)">
      <stop offset="0" stop-color="rgb(255,255,255)" stop-opacity="0.247059"/>
      <stop offset="1" stop-color="rgb(255,255,255)" stop-opacity="0.0313726"/>
    </linearGradient>
    <radialGradient id="gradient56" gradientUnits="userSpaceOnUse" cx="998.127" cy="760.782" fx="999.162" fy="760.305" r="32.9728" spreadMethod="pad" gradientTransform="matrix(0.0327289,-2.70084e-08,-1.45286e-07,0.032729,-32.0743,-25.3371)">
      <stop offset="0" stop-color="rgb(255,255,255)" stop-opacity="0.290196"/>
      <stop offset="1" stop-color="rgb(255,255,255)" stop-opacity="0.0196078"/>
    </radialGradient>
    <radialGradient id="gradient57" gradientUnits="userSpaceOnUse" cx="998.127" cy="760.782" fx="999.162" fy="760.305" r="32.9728" spreadMethod="pad" gradientTransform="matrix(0.032729,8.84756e-09,-4.47035e-08,0.032729,-32.0745,-25.3372)">
      <stop offset="0" stop-color="rgb(255,255,255)" stop-opacity="0.290196"/>
      <stop offset="1" stop-color="rgb(255,255,255)" stop-opacity="0.0196078"/>
    </radialGradient>
    <radialGradient id="gradient58" gradientUnits="userSpaceOnUse" cx="998.127" cy="760.782" fx="999.162" fy="760.305" r="32.9728" spreadMethod="pad" gradientTransform="matrix(0.0327291,-7.45058e-09,1.2666e-07,0.032729,-32.0744,-25.3371)">
      <stop offset="0" stop-color="rgb(255,255,255)" stop-opacity="0.290196"/>
      <stop offset="1" stop-color="rgb(255,255,255)" stop-opacity="0.0196078"/>
    </radialGradient>
    <radialGradient id="gradient59" gradientUnits="userSpaceOnUse" cx="998.127" cy="760.782" fx="999.162" fy="760.305" r="32.9728" spreadMethod="pad" gradientTransform="matrix(0.0327291,-7.45058e-09,1.2666e-07,0.032729,-32.0745,-25.3371)">
      <stop offset="0" stop-color="rgb(255,255,255)" stop-opacity="0.290196"/>
      <stop offset="1" stop-color="rgb(255,255,255)" stop-opacity="0.0196078"/>
    </radialGradient>
    <radialGradient id="gradient60" gradientUnits="userSpaceOnUse" cx="998.127" cy="760.782" fx="999.162" fy="760.305" r="32.9728" spreadMethod="pad" gradientTransform="matrix(0.0327291,-7.45058e-09,1.2666e-07,0.032729,-32.0744,-25.3371)">
      <stop offset="0" stop-color="rgb(255,255,255)" stop-opacity="0.290196"/>
      <stop offset="1" stop-color="rgb(255,255,255)" stop-opacity="0.0196078"/>
    </radialGradient>
    <radialGradient id="gradient61" gradientUnits="userSpaceOnUse" cx="998.127" cy="760.782" fx="999.162" fy="760.305" r="32.9728" spreadMethod="pad" gradientTransform="matrix(0.0327291,-7.45058e-09,1.2666e-07,0.032729,-32.0744,-25.3371)">
      <stop offset="0" stop-color="rgb(255,255,255)" stop-opacity="0.290196"/>
      <stop offset="1" stop-color="rgb(255,255,255)" stop-opacity="0.0196078"/>
    </radialGradient>
    <radialGradient id="gradient62" gradientUnits="userSpaceOnUse" cx="998.127" cy="760.782" fx="999.162" fy="760.305" r="32.9728" spreadMethod="pad" gradientTransform="matrix(0.0327289,3.1665e-08,-3.72529e-08,0.032729,-32.0744,-25.3372)">
      <stop offset="0" stop-color="rgb(255,255,255)" stop-opacity="0.290196"/>
      <stop offset="1" stop-color="rgb(255,255,255)" stop-opacity="0.0196078"/>
    </radialGradient>
    <radialGradient id="gradient63" gradientUnits="userSpaceOnUse" cx="998.127" cy="760.782" fx="999.162" fy="760.305" r="32.9728" spreadMethod="pad" gradientTransform="matrix(0.0327289,3.1665e-08,-3.72529e-08,0.032729,-32.0744,-25.3372)">
      <stop offset="0" stop-color="rgb(255,255,255)" stop-opacity="0.290196"/>
      <stop offset="1" stop-color="rgb(255,255,255)" stop-opacity="0.0196078"/>
    </radialGradient>
    <radialGradient id="gradient64" gradientUnits="userSpaceOnUse" cx="998.127" cy="760.782" fx="999.162" fy="760.305" r="32.9728" spreadMethod="pad" gradientTransform="matrix(0.0327289,3.1665e-08,-3.72529e-08,0.032729,-32.0745,-25.3371)">
      <stop offset="0" stop-color="rgb(255,255,255)" stop-opacity="0.290196"/>
      <stop offset="1" stop-color="rgb(255,255,255)" stop-opacity="0.0196078"/>
    </radialGradient>
    <radialGradient id="gradient65" gradientUnits="userSpaceOnUse" cx="998.127" cy="760.782" fx="999.162" fy="760.305" r="32.9728" spreadMethod="pad" gradientTransform="matrix(0.032729,-1.86265e-08,-2.04891e-08,0.032729,-32.0745,-25.3371)">
      <stop offset="0" stop-color="rgb(255,255,255)" stop-opacity="0.290196"/>
      <stop offset="1" stop-color="rgb(255,255,255)" stop-opacity="0.0196078"/>
    </radialGradient>
    <radialGradient id="gradient66" gradientUnits="userSpaceOnUse" cx="998.127" cy="760.782" fx="999.162" fy="760.305" r="32.9728" spreadMethod="pad" gradientTransform="matrix(0.0327289,1.02445e-08,1.22935e-07,0.032729,-32.0746,-25.3371)">
      <stop offset="0" stop-color="rgb(255,255,255)" stop-opacity="0.290196"/>
      <stop offset="1" stop-color="rgb(255,255,255)" stop-opacity="0.0196078"/>
    </radialGradient>
    <radialGradient id="gradient67" gradientUnits="userSpaceOnUse" cx="998.127" cy="760.782" fx="999.162" fy="760.305" r="32.9728" spreadMethod="pad" gradientTransform="matrix(0.032729,1.86265e-09,2.04891e-08,0.0327291,-32.0746,-25.3371)">
      <stop offset="0" stop-color="rgb(255,255,255)" stop-opacity="0.290196"/>
      <stop offset="1" stop-color="rgb(255,255,255)" stop-opacity="0.0196078"/>
    </radialGradient>
    <radialGradient id="gradient68" gradientUnits="userSpaceOnUse" cx="998.127" cy="760.782" fx="999.162" fy="760.305" r="32.9728" spreadMethod="pad" gradientTransform="matrix(0.0327291,5.4948e-08,1.32248e-07,0.032729,-32.0745,-25.3372)">
      <stop offset="0" stop-color="rgb(255,255,255)" stop-opacity="0.290196"/>
      <stop offset="1" stop-color="rgb(255,255,255)" stop-opacity="0.0196078"/>
    </radialGradient>
    <radialGradient id="gradient69" gradientUnits="userSpaceOnUse" cx="998.127" cy="760.782" fx="999.162" fy="760.305" r="32.9728" spreadMethod="pad" gradientTransform="matrix(0.032729,1.11759e-08,9.31323e-08,0.032729,-32.0746,-25.3371)">
      <stop offset="0" stop-color="rgb(255,255,255)" stop-opacity="0.290196"/>
      <stop offset="1" stop-color="rgb(255,255,255)" stop-opacity="0.0196078"/>
    </radialGradient>
  </defs>
  <g> <!-- invert y -->
    <g> <!-- scene-transformation -->
      <path id="shape0" fill-rule="evenodd" fill="url(#gradient0)" d="M 0 0 L 629.876 0 629.876 631.608 0 631.608 0 0 Z"/>
      <path id="shape1" fill-rule="evenodd" fill="black" d="M 215.125 296.924 C 219.42 298.403 243.068 291.379 245.852 291.871 249.714 292.554 257.705 296.538 253.578 292.314 251.566 290.255 245.602 288.795 239.068 290.814 225.268 295.105 212.113 295.886 215.125 296.924 Z"/>
      <path id="shape2" fill-rule="evenodd" fill="black" d="M 255.993 300.143 C 257.617 300.211 257.448 294.445 258.163 283.403 258.861 272.616 263.724 271.101 259.942 270.264 258.341 269.909 255.917 268.652 256.007 283.67 256.077 294.968 254.37 300.075 255.993 300.143 Z"/>
      <path id="shape3" fill-rule="evenodd" fill="black" d="M 245.99 298.79 C 246.544 300.474 248.479 299.612 252.554 299.032 256.535 298.466 258.79 303.306 257.733 299.302 257.286 297.606 256.857 294.953 251.694 296.838 247.81 298.259 245.435 297.105 245.99 298.79 Z"/>
      <path id="shape4" fill-rule="evenodd" fill="black" d="M 275.817 309.205 C 271.982 305.427 264.73 275.942 262.037 273.817 254.979 268.25 256.3 267.652 260.066 266.887 262.09 266.476 271.75 279.187 270.266 284.758 276.177 303.81 278.506 311.856 275.817 309.205 Z"/>
      <path id="shape5" fill-rule="evenodd" fill="black" d="M 312.893 309.614 C 310.042 309.705 310.339 301.962 309.084 287.134 307.858 272.648 299.323 270.613 305.961 269.489 308.772 269.013 313.028 267.325 312.868 287.493 312.746 302.665 315.743 309.523 312.893 309.614 Z"/>
      <path id="shape6" fill-rule="evenodd" fill="black" d="M 328.174 312.155 C 327.556 313.561 324.726 312.058 318.89 310.068 313.188 308.124 310.475 311.929 311.572 308.495 312.037 307.04 312.378 304.669 319.89 308.285 325.54 311.008 328.791 310.749 328.174 312.155 Z"/>
      <path id="shape7" fill-rule="evenodd" fill="black" d="M 306.894 271.636 C 305.405 276.81 282.958 297.258 282.377 300.638 280.853 309.497 279.698 308.622 277.228 305.678 275.901 304.096 282.459 289.539 288.062 288.185 301.981 273.896 307.939 268.008 306.894 271.636 Z"/>
      <path id="shape8" fill-rule="evenodd" fill="url(#gradient1)" d="M 525.67 359.317 C 501 351.811 516.551 354.446 516.59 344.719 516.624 336.254 542.26 342.992 557.965 346.245 573.917 349.548 575.131 354.468 573.42 356.839 570.915 360.309 558.558 369.325 525.67 359.317 Z"/>
      <path id="shape9" fill-rule="evenodd" fill="url(#gradient2)" d="M 523.766 338.392 C 548.939 343.984 533.232 342.549 533.939 352.25 534.554 360.693 508.476 355.941 492.568 353.902 476.41 351.832 474.823 347.019 476.346 344.525 478.578 340.872 490.207 330.936 523.766 338.392 Z"/>
      <path id="shape10" fill-rule="evenodd" fill="url(#gradient3)" d="M 487.001 331.583 C 512.148 337.791 496.445 336.253 497.094 347.277 497.659 356.872 471.603 351.625 455.703 349.402 439.553 347.144 437.994 341.683 439.533 338.838 441.787 334.672 453.478 323.307 487.001 331.583 Z"/>
      <path id="shape11" fill-rule="evenodd" fill="url(#gradient4)" d="M 448.116 324.797 C 473.235 331.62 457.537 329.979 458.129 342.327 458.644 353.073 432.609 347.331 416.717 344.924 400.575 342.479 399.045 336.369 400.599 333.174 402.875 328.495 414.628 315.701 448.116 324.797 Z"/>
      <path id="shape12" fill-rule="evenodd" fill="url(#gradient5)" d="M 414.073 319.231 C 439.192 326.054 423.494 324.413 424.086 336.76 424.601 347.506 398.566 341.765 382.674 339.358 366.532 336.913 365.002 330.803 366.556 327.607 368.832 322.928 380.585 310.134 414.073 319.231 Z"/>
      <path id="shape13" fill-rule="evenodd" fill="url(#gradient6)" d="M 376.519 311.669 C 401.605 319.261 385.913 317.492 386.432 331.494 386.885 343.679 360.877 337.319 344.995 334.682 328.863 332.003 327.368 325.082 328.941 321.448 331.245 316.128 343.076 301.548 376.519 311.669 Z"/>
      <path id="shape14" fill-rule="evenodd" fill="url(#gradient7)" d="M 339.025 304.275 C 363.449 312.981 352.998 317.358 343.561 327.656 338.178 333.53 323.346 333.827 307.851 330.813 292.112 327.752 290.752 319.786 292.345 315.6 294.677 309.472 306.465 292.669 339.025 304.275 Z"/>
      <path id="shape15" fill-rule="evenodd" fill="url(#gradient8)" d="M 212.344 318.203 C 200.719 342.415 227.919 351.369 208.169 358.809 189.113 365.988 168.235 348.969 173.635 317.444 176.489 300.784 195.81 288.223 208.169 288.223 220.529 288.223 226.525 288.666 212.344 318.203 Z"/>
      <path id="shape16" fill-rule="evenodd" fill="url(#gradient9)" d="M 219.921 291.876 C 220.398 293.444 217.086 303.425 212.843 305.524 215.997 297.203 216.399 292.761 210.466 291.801 202.88 290.573 198.883 292.857 193.67 292.57 199.746 291.015 200.305 291.063 202.398 290.609 205.462 289.944 218.37 286.781 219.921 291.876 Z"/>
      <path id="shape17" fill-rule="evenodd" fill="url(#gradient10)" d="M 204.401 329.176 C 205.27 345.362 221.679 343.458 212.637 354.313 203.914 364.787 185.063 361.935 178.331 344.401 174.773 335.134 174.337 321.396 181.448 316.903 188.559 312.41 203.342 309.431 204.401 329.176 Z"/>
      <path id="shape18" fill-rule="evenodd" fill="rgb(85,87,84)" d="M 207.568 333.759 C 211.054 337.448 214.386 344.426 213.699 348.248 213.013 352.069 208.391 352.882 204.905 349.193 201.419 345.504 200.382 338.878 201.069 335.057 201.755 331.235 204.082 330.069 207.568 333.759 Z"/>
      <path id="shape19" fill-rule="evenodd" transform="matrix(1.15828,-6.92296,5.88238,6.68366,207.285,340.506)" fill="url(#gradient11)" d="M 0 1 A 1 1 0 0 1 -0.866025 -0.5 1 1 0 0 1 0.866025 -0.5 1 1 0 0 1 0 1 Z"/>
      <path id="shape20" fill-rule="evenodd" fill="rgb(113,108,92)" d="M 219.281 299.82 C 219.159 304.894 214.671 316.785 211.494 319.016 208.316 321.246 202.483 315.696 201.581 306.436 200.825 298.67 206.01 294.035 209.514 292.989 215.847 291.099 219.402 294.745 219.281 299.82 Z"/>
      <path id="shape21" fill-rule="evenodd" fill="url(#gradient12)" d="M 217.435 298.388 C 218.867 302.88 216.729 309.112 212.662 312.299 208.595 315.486 203.249 316.193 202.699 309.936 202.287 305.24 203.405 299.213 207.472 296.025 211.539 292.838 216.002 293.897 217.435 298.388 Z"/>
      <path id="shape22" fill-rule="evenodd" fill="rgb(64,61,179)" fill-opacity="0.278431" d="M 212.871 318.375 C 201.247 342.586 228.446 351.54 208.697 358.981 189.641 366.16 168.763 349.141 174.163 317.616 177.016 300.955 196.337 288.394 208.697 288.394 221.056 288.394 227.053 288.837 212.871 318.375 Z"/>
      <path id="shape23" fill-rule="evenodd" fill="url(#gradient13)" d="M 265.915 313.898 C 257.089 354.256 246.145 327.899 227.585 330.217 212.897 332.051 199.014 331.53 199.982 321.389 200.979 310.93 205.886 307.131 211.857 305.02 220.6 301.929 271.344 289.068 265.915 313.898 Z"/>
      <path id="shape24" fill-rule="evenodd" fill="url(#gradient14)" d="M 244.05 301.875 C 246.542 304.213 228.627 306.691 218.6 308.682 212.882 309.818 210.357 309.234 210.487 307.847 210.619 306.438 217.045 304.515 220.775 303.607 226.237 302.277 240.649 298.684 244.05 301.875 Z"/>
      <path id="shape25" fill-rule="evenodd" fill="url(#gradient15)" d="M 299.12 291.104 C 336.121 303.457 320.904 311.592 307.646 329.45 300.084 339.636 278.038 341.383 254.754 337.703 231.105 333.965 228.476 320.883 230.527 313.816 233.531 303.467 249.793 274.636 299.12 291.104 Z"/>
      <path id="shape26" fill-rule="nonzero" transform="matrix(20.8413,-7.17429,26.7392,15.3531,287.177,303.234)" fill="url(#gradient16)" d="M 0 1 A 1 1 0 0 1 -0.866025 -0.5 1 1 0 0 1 0.866025 -0.5 1 1 0 0 1 0 1 Z"/>
      <path id="shape27" fill-rule="evenodd" fill="url(#gradient17)" d="M 254.584 309.291 C 247.741 323.544 263.753 328.814 252.127 333.194 240.909 337.421 228.619 327.402 231.798 308.844 233.478 299.037 244.851 291.642 252.127 291.642 259.403 291.642 262.932 291.903 254.584 309.291 Z"/>
      <path id="shape28" fill-rule="evenodd" fill="url(#gradient18)" d="M 261.083 310.951 C 257.229 317.753 253.645 315.797 246.309 314.777 242.124 314.196 240.858 310.723 241.682 306.703 242.519 302.62 247.566 301.361 250.385 301.245 254.513 301.074 266.221 301.884 261.083 310.951 Z"/>
      <path id="shape29" fill-rule="evenodd" fill="url(#gradient19)" d="M 286.772 310.639 C 282.918 317.441 279.333 315.485 271.997 314.465 267.813 313.884 266.546 310.411 267.37 306.391 268.207 302.308 273.255 301.048 276.074 300.932 280.201 300.762 291.909 301.572 286.772 310.639 Z"/>
      <path id="shape30" fill-rule="evenodd" fill="url(#gradient20)" d="M 263.838 292.671 C 261.164 299.061 257.328 298.126 249.962 298.691 245.761 299.013 243.953 296.373 244.107 292.876 244.264 289.324 249.012 287.307 251.759 286.668 255.782 285.732 267.402 284.152 263.838 292.671 Z"/>
      <path id="shape31" fill-rule="evenodd" fill="url(#gradient21)" d="M 262.456 293.191 C 260.629 295.386 260.754 288.837 257.077 288.587 253.766 288.362 256.273 286.157 257.113 286.119 258.073 286.076 261.815 286.781 262.682 288.031 263.782 289.619 264.158 291.146 262.456 293.191 Z"/>
      <path id="shape32" fill-rule="evenodd" fill="url(#gradient22)" d="M 284.354 292.839 C 280.287 298.447 276.767 296.659 269.469 295.522 265.306 294.873 264.15 291.889 265.101 288.52 266.067 285.099 271.151 284.222 273.971 284.23 278.101 284.24 289.775 285.364 284.354 292.839 Z"/>
      <path id="shape33" fill-rule="evenodd" fill="url(#gradient23)" d="M 233.694 313.961 C 231.406 332.362 312.261 332.048 284.744 340.007 270.637 344.088 233.481 334.619 228.736 329.8 220.064 320.99 227.551 305.667 232.702 301.638 239.718 296.15 234.46 307.805 233.694 313.961 Z"/>
      <path id="shape34" fill-rule="evenodd" fill="black" d="M 204.642 372.633 C 211.004 371.067 234.911 340.532 238.691 338.843 243.938 336.499 256.679 335.365 248.51 332.821 244.528 331.581 236.129 334.614 229.581 343.164 215.771 361.262 200.181 373.732 204.642 372.633 Z"/>
      <path id="shape35" fill-rule="evenodd" fill="url(#gradient24)" d="M 286.949 307.363 C 286.082 311.973 280.247 306.751 276.983 305.469 275.121 304.738 274.852 303.494 275.588 302.356 276.335 301.201 278.756 301.475 280.056 301.81 281.958 302.301 287.653 303.616 286.949 307.363 Z"/>
      <path id="shape36" fill-rule="evenodd" fill="black" d="M 235.546 401.161 C 240.189 398.433 260.568 342.392 263.573 341.624 271.447 339.611 273.52 336.258 267.559 331.827 264.653 329.668 253.033 341.846 251.433 356.047 237.888 388.943 232.29 403.074 235.546 401.161 Z"/>
      <path id="shape37" fill-rule="evenodd" fill="black" d="M 348.555 382.092 C 339.17 380.151 299.611 341.994 293.537 341.447 277.619 340.015 278.997 337.751 283.844 332.748 286.448 330.06 313.206 339.879 316.44 349.985 343.821 373.397 355.136 383.454 348.555 382.092 Z"/>
      <path id="shape38" fill-rule="evenodd" fill="url(#gradient25)" d="M 283.823 288.939 C 283.226 292.158 279.145 288.523 276.864 287.633 275.564 287.126 275.374 286.258 275.885 285.463 276.405 284.655 278.095 284.842 279.003 285.074 280.332 285.414 284.309 286.322 283.823 288.939 Z"/>
      <path id="shape39" fill-rule="evenodd" fill="url(#gradient26)" d="M 258.707 290.265 C 258.703 292.094 259.921 294.656 239.682 275.63 216.852 257.143 216.372 258.458 187.733 238.582 176.371 230.697 141.868 223.49 89.3474 183.091 59.5602 160.178 41.2845 128.84 68.2544 110.704 78.6575 112.656 147.388 181.135 165.756 199.356 184.123 217.578 179.712 214.046 186.743 219.3 193.774 224.554 193.856 226.218 211.189 240.255 228.522 254.292 258.737 277.465 258.707 290.265 Z"/>
      <path id="shape40" fill-rule="nonzero" fill="none" stroke-width="1.28792" stroke-linejoin="miter" stroke-miterlimit="4" stroke-linecap="butt" stroke-dashoffset="0" stroke="url(#gradient27)" stroke-opacity="0.203922" d="M 258.707 290.265 C 258.703 292.094 259.921 294.656 239.682 275.63 216.852 257.143 216.372 258.458 187.733 238.582 176.371 230.697 141.868 223.49 89.3474 183.091 59.5602 160.178 41.2845 128.84 68.2544 110.704 78.6575 112.656 147.388 181.135 165.756 199.356 184.123 217.578 179.712 214.046 186.743 219.3 193.774 224.554 193.856 226.218 211.189 240.255 228.522 254.292 258.737 277.465 258.707 290.265 Z"/>
      <path id="shape41" fill-rule="evenodd" fill="black" d="M 231.55 438.289 C 233.843 438.385 233.605 430.239 234.614 414.64 235.601 399.401 242.47 397.261 237.128 396.078 234.865 395.577 231.441 393.802 231.569 415.018 231.668 430.979 229.256 438.193 231.55 438.289 Z"/>
      <path id="shape42" fill-rule="evenodd" fill="black" d="M 217.417 436.377 C 218.201 438.757 220.934 437.539 226.691 436.72 232.314 435.92 235.501 442.758 234.008 437.101 233.375 434.705 232.77 430.957 225.475 433.621 219.988 435.627 216.633 433.997 217.417 436.377 Z"/>
      <path id="shape43" fill-rule="evenodd" fill="black" d="M 352.828 427.451 C 349.159 427.568 349.541 417.6 347.925 398.51 346.347 379.861 335.359 377.242 343.904 375.795 347.524 375.182 353.002 373.009 352.797 398.973 352.639 418.505 356.497 427.334 352.828 427.451 Z"/>
      <path id="shape44" fill-rule="evenodd" fill="black" d="M 372.501 430.722 C 371.706 432.532 368.062 430.597 360.549 428.035 353.209 425.532 349.716 430.431 351.128 426.01 351.727 424.137 352.166 421.084 361.836 425.74 369.11 429.245 373.296 428.913 372.501 430.722 Z"/>
      <path id="shape45" fill-rule="evenodd" fill="black" d="M 186.687 375.873 C 186.467 374.015 190.74 373.822 198.812 372.26 206.699 370.734 207.309 365.054 208.322 369.336 208.751 371.149 209.931 373.846 198.84 374.751 190.496 375.43 186.906 377.732 186.687 375.873 Z"/>
      <path id="shape46" fill-rule="evenodd" fill="black" d="M 176.71 377.935 C 177.367 379.891 179.656 378.89 184.478 378.217 189.188 377.56 191.857 383.178 190.607 378.53 190.077 376.561 189.57 373.482 183.46 375.671 178.864 377.319 176.054 375.98 176.71 377.935 Z"/>
      <path id="shape47" fill-rule="evenodd" transform="matrix(14.4645,-7.17801,5.09498,10.1154,183.781,303.171)" fill="url(#gradient28)" d="M 0 1 A 1 1 0 0 1 -0.866025 -0.5 1 1 0 0 1 0.866025 -0.5 1 1 0 0 1 0 1 Z"/>
      <path id="shape48" fill-rule="nonzero" fill="none" stroke-width="1.2427" stroke-linejoin="miter" stroke-miterlimit="4" stroke-linecap="butt" stroke-dashoffset="0" transform="matrix(0.895767,-0.444525,0.449844,0.893107,0,0)" stroke="black" stroke-opacity="0.607843" d="M 27.7569 364.598 A 16.1476 11.3261 180 0 1 13.7727 347.609 16.1476 11.3261 -180 0 1 41.7411 347.609 16.1476 11.3261 -180 0 1 27.7569 364.598 Z"/>
      <path id="shape49" fill-rule="evenodd" fill="url(#gradient29)" d="M 198.572 299.486 C 198.572 303.784 193.757 311.344 188.953 311.344 196.442 305.809 193.209 289.304 174.652 297.145 177.706 292.948 184.556 291.292 189.36 291.292 194.164 291.292 198.572 295.187 198.572 299.486 Z"/>
      <path id="shape50" fill-rule="evenodd" fill="url(#gradient30)" d="M 198.018 299.966 C 197.719 302.83 196.08 306.75 193.339 309.237 200.904 293.696 190.457 290.612 178.938 293.806 186.002 290.961 190.947 291.887 192.728 292.576 194.847 293.395 198.409 296.229 198.018 299.966 Z"/>
      <path id="shape51" fill-rule="evenodd" fill="url(#gradient31)" d="M 318.816 301.457 C 323.337 305.519 323.267 308.684 317.978 313.983 320.392 304.007 301.691 296.224 288.651 288.621 293.38 288.106 296.156 290.085 299.181 291.266 303.611 292.995 314.222 297.328 318.816 301.457 Z"/>
      <path id="shape52" fill-rule="evenodd" fill="url(#gradient32)" d="M 279.114 290.519 C 278.308 292.16 259.895 287.59 250.056 261.614 237.654 234.984 234.787 239.762 217.773 209.334 211.024 197.264 179.365 135.427 173.957 119.899 167.894 82.6895 154.573 50.0599 186.766 45.5978 195.257 51.9165 226.97 143.609 235.479 168.042 243.989 192.475 241.575 187.366 245.587 195.173 249.6 202.979 248.943 204.51 258.359 224.729 267.776 244.948 284.757 279.03 279.114 290.519 Z"/>
      <path id="shape53" fill-rule="nonzero" fill="none" stroke-width="1.28792" stroke-linejoin="miter" stroke-miterlimit="4" stroke-linecap="butt" stroke-dashoffset="0" stroke="url(#gradient33)" stroke-opacity="0.203922" d="M 279.114 290.519 C 278.308 292.16 259.895 287.59 250.056 261.614 237.654 234.984 234.787 239.762 217.773 209.334 211.024 197.264 179.365 135.427 173.957 119.899 167.894 82.6895 154.573 50.0599 186.766 45.5978 195.257 51.9165 226.97 143.609 235.479 168.042 243.989 192.475 241.575 187.366 245.587 195.173 249.6 202.979 248.943 204.51 258.359 224.729 267.776 244.948 284.757 279.03 279.114 290.519 Z"/>
      <path id="shape54" fill-rule="evenodd" fill="url(#gradient34)" d="M 226.446 324.737 C 247.589 317.436 216.873 318.121 259.931 331.373 282.61 338.353 299.109 335.267 292.208 338.129 278.657 342.916 263.327 339.813 256.754 338.365 247.129 336.246 225.78 332.912 226.446 324.737 Z"/>
      <path id="shape55" fill-rule="evenodd" fill="url(#gradient35)" d="M 277.529 305.21 C 278.958 304.07 295.426 326.094 296.937 325.808 309.025 323.517 305.687 336.522 303.5 364.213 303.352 393.589 296.553 412.412 292.421 424.134 287.824 437.177 284.824 487.591 283.089 503.942 272.693 540.181 276.864 560.052 256.53 566.119 248.209 562.025 261.995 460.324 264.726 434.596 267.457 408.868 267.46 414.518 267.162 405.746 266.865 396.974 268.112 395.869 268.225 373.566 268.337 351.262 267.523 313.193 277.529 305.21 Z"/>
      <path id="shape56" fill-rule="nonzero" fill="none" stroke-width="1.28792" stroke-linejoin="miter" stroke-miterlimit="4" stroke-linecap="butt" stroke-dashoffset="0" stroke="url(#gradient36)" stroke-opacity="0.203922" d="M 277.529 305.21 C 278.958 304.07 295.426 326.094 296.937 325.808 309.025 323.517 305.687 336.522 303.5 364.213 303.352 393.589 296.553 412.412 292.421 424.134 287.824 437.177 284.824 487.591 283.089 503.942 272.693 540.181 276.864 560.052 256.53 566.119 248.209 562.025 261.995 460.324 264.726 434.596 267.457 408.868 267.46 414.518 267.162 405.746 266.865 396.974 268.112 395.869 268.225 373.566 268.337 351.262 267.523 313.193 277.529 305.21 Z"/>
      <path id="shape57" fill-rule="evenodd" fill="url(#gradient37)" d="M 252.349 304.038 C 253.935 303.546 259.847 330.25 261.2 330.576 272.021 333.184 244.919 365.036 233.381 389.679 222.941 416.669 205.638 475.515 198.458 489.892 177.115 519.202 173.966 529.664 143.314 536.071 134.564 519.477 184.999 440.795 196.298 418.172 207.597 395.549 205.615 400.753 208.449 392.56 211.284 384.367 212.705 383.837 220.632 363.345 228.558 342.853 241.254 307.484 252.349 304.038 Z"/>
      <path id="shape58" fill-rule="nonzero" fill="none" stroke-width="1.22187" stroke-linejoin="miter" stroke-miterlimit="4" stroke-linecap="butt" stroke-dashoffset="0" stroke="url(#gradient38)" stroke-opacity="0.203922" d="M 252.349 304.038 C 253.935 303.546 259.847 330.25 261.2 330.576 272.021 333.184 244.919 365.036 233.381 389.679 222.941 416.669 205.638 475.515 198.458 489.892 177.115 519.202 173.966 529.664 143.314 536.071 134.564 519.477 184.999 440.795 196.298 418.172 207.597 395.549 205.615 400.753 208.449 392.56 211.284 384.367 212.705 383.837 220.632 363.345 228.558 342.853 241.254 307.484 252.349 304.038 Z"/>
      <path id="shape59" fill-rule="evenodd" transform="matrix(11.9889,-10.1162,11.7882,12.4554,181.611,330.361)" fill="url(#gradient39)" d="M 0 1 A 1 1 0 0 1 -0.866025 -0.5 1 1 0 0 1 0.866025 -0.5 1 1 0 0 1 0 1 Z"/>
      <path id="shape60" fill-rule="nonzero" fill="none" stroke-width="1.22344" stroke-linejoin="miter" stroke-miterlimit="4" stroke-linecap="butt" stroke-dashoffset="0" transform="matrix(0.764273,-0.644892,0.687388,0.72629,0,0)" stroke="black" stroke-opacity="0.513726" d="M -95.3382 387.356 A 17.1493 15.6866 90 0 1 -108.923 361.632 17.1493 15.6866 90 0 1 -81.7532 361.632 17.1493 15.6866 90 0 1 -95.3382 387.356 Z"/>
      <path id="shape61" fill-rule="evenodd" fill="url(#gradient40)" d="M 197.597 329.649 C 197.597 333.69 197.234 339.172 191.926 342.427 195.979 335.057 183.722 315.792 172.49 316.823 178.987 314.025 184.667 314.89 188.953 317.445 193.93 320.412 197.597 325.607 197.597 329.649 Z"/>
      <path id="shape62" fill-rule="evenodd" fill="url(#gradient41)" d="M 197.048 332.614 C 196.662 334.804 195.942 338.228 192.535 341.523 198.408 328.824 193.823 321.52 186.647 316.771 194.839 321.37 195.349 324.399 196.17 326.047 197.03 327.775 197.433 330.423 197.048 332.614 Z"/>
      <path id="shape63" fill-rule="evenodd" fill="url(#gradient42)" d="M 259.903 305.589 C 260.046 309.736 256.627 304.635 251.467 305.659 249.824 305.985 249.374 304.313 249.763 303.199 250.157 302.069 252.172 301.89 253.288 301.958 254.923 302.056 259.786 302.218 259.903 305.589 Z"/>
      <path id="shape64" fill-rule="evenodd" fill="url(#gradient43)" d="M 269.38 266.705 C 269.335 268.261 260.765 265.649 251.96 242.897 241.959 219.766 241.61 224.34 228.987 198.147 223.979 187.757 199.552 134.283 194.488 120.643 185.255 87.3846 173.79 58.8862 186.538 52.1563 191.247 57.1826 221.057 137.743 229.025 159.205 236.994 180.666 235.06 176.232 238.151 182.981 241.241 189.73 241.239 191.174 248.833 208.737 256.426 226.299 269.692 255.81 269.38 266.705 Z"/>
      <path id="shape65" fill-rule="evenodd" fill="url(#gradient44)" d="M 243.767 270.514 C 244.437 271.919 242.048 273.501 223.838 257.266 204.391 241.239 206.166 244.665 182.989 227.108 173.794 220.143 113.207 190.117 102.481 180.286 79.1012 154.895 63.9413 129.132 72.2192 117.33 78.7014 119.657 141.962 177.766 158.839 193.235 175.716 208.703 171.973 205.637 177.801 210.236 183.628 214.834 184.285 216.119 199.05 228.288 213.816 240.457 239.078 260.674 243.767 270.514 Z"/>
      <path id="shape66" fill-rule="evenodd" fill="url(#gradient45)" d="M 259.083 333.336 C 259.058 332.118 249.816 280.257 240.255 353.457 232.152 371.489 231.905 367.908 221.696 388.318 217.646 396.415 197.875 438.093 193.759 448.732 186.2 474.692 176.897 496.914 186.987 502.262 190.764 498.36 214.994 435.525 221.47 418.786 227.947 402.047 226.38 405.504 228.882 400.244 231.383 394.983 231.391 393.854 237.544 380.163 243.696 366.472 259.26 341.862 259.083 333.336 Z"/>
      <path id="shape67" fill-rule="evenodd" fill="url(#gradient46)" d="M 295.119 334.123 C 283.491 329.749 275.116 297.461 273.403 316.514 270.861 336.119 274.411 374.556 270.541 397.046 269.006 405.969 262.937 442.742 262.073 454.117 262.346 481.154 259.867 509.135 271.073 511.336 273.56 506.509 278.582 439.352 279.94 421.455 281.299 403.558 280.799 407.321 281.672 401.562 282.545 395.802 282.227 394.719 284.157 379.834 286.087 364.948 303.38 352.682 295.119 334.123 Z"/>
      <path id="shape68" fill-rule="evenodd" fill="url(#gradient47)" d="M 353.285 315.384 C 352.898 317.315 344.148 326.425 338.799 326.558 346.481 319.161 349.314 314.569 343.967 310.549 337.132 305.411 331.924 305.867 326.921 302.938 333.787 304.313 334.314 304.646 336.635 305.207 340.032 306.03 354.543 309.103 353.285 315.384 Z"/>
      <path id="shape69" fill-rule="evenodd" fill="url(#gradient48)" d="M 343.61 375.173 C 339.247 374.201 311.836 350.766 310.216 348.437 306.292 342.796 296.218 341.372 298.471 338.866 299.681 337.519 314.726 344.176 316.229 349.24 331.853 364.446 346.669 375.856 343.61 375.173 Z"/>
      <path id="shape70" fill-rule="evenodd" fill="url(#gradient49)" d="M 310.963 274.972 C 309.207 276.416 308.663 272.66 307.848 271.168 307.384 270.318 307.671 269.772 308.298 269.578 308.935 269.381 309.75 270.236 310.128 270.764 310.683 271.539 312.39 273.799 310.963 274.972 Z"/>
      <path id="shape71" fill-rule="evenodd" fill="url(#gradient50)" d="M 387.279 321.664 C 386.892 323.595 384.223 335.022 378.005 333.128 379.316 327.758 383.308 320.849 377.961 316.829 371.125 311.691 365.917 312.147 360.914 309.218 367.781 310.593 368.308 310.926 370.628 311.487 374.026 312.31 388.536 315.383 387.279 321.664 Z"/>
      <path id="shape72" fill-rule="evenodd" fill="url(#gradient51)" d="M 424.636 328.943 C 424.249 330.874 421.291 335.351 415.073 333.456 416.384 328.087 420.665 328.128 415.318 324.108 408.483 318.97 403.274 319.426 398.272 316.497 405.138 317.872 405.665 318.205 407.986 318.767 411.383 319.589 425.894 322.662 424.636 328.943 Z"/>
      <path id="shape73" fill-rule="evenodd" fill="url(#gradient52)" d="M 459.677 331.715 C 460.954 333.215 456.332 336.965 450.113 335.071 451.424 329.701 456.864 334.086 451.517 330.067 444.682 324.928 439.473 325.385 434.47 322.455 441.337 323.83 441.864 324.163 444.184 324.725 447.582 325.547 456.301 327.752 459.677 331.715 Z"/>
      <path id="shape74" fill-rule="evenodd" fill="url(#gradient53)" d="M 497.903 339.534 C 497.516 341.466 495.427 341.888 489.787 343.179 491.098 337.81 493.932 340.746 488.585 336.727 481.749 331.589 476.541 332.045 471.538 329.116 478.405 330.491 478.932 330.824 481.252 331.385 484.65 332.208 499.16 333.254 497.903 339.534 Z"/>
      <path id="shape75" fill-rule="evenodd" fill="url(#gradient54)" d="M 534.391 347.003 C 534.005 348.934 531.915 349.357 526.276 350.648 527.587 345.279 523.76 352.269 518.413 348.25 511.577 343.112 515.926 348.491 508.027 336.584 514.894 337.96 516.579 337.713 518.899 338.275 522.297 339.097 535.649 340.722 534.391 347.003 Z"/>
      <path id="shape76" fill-rule="evenodd" fill="url(#gradient55)" d="M 569.719 355.111 C 569.332 357.043 567.242 357.465 561.603 358.756 562.914 353.387 559.087 360.378 553.74 356.359 546.904 351.22 551.253 356.6 543.354 344.693 550.221 346.068 551.906 345.822 554.226 346.383 557.624 347.206 570.976 348.831 569.719 355.111 Z"/>
      <path id="shape77" fill-rule="nonzero" transform="matrix(11.2173,-7.48242,11.3134,12.6979,182.232,329.649)" fill="url(#gradient56)" d="M 0 1 A 1 1 0 0 1 -0.866025 -0.5 1 1 0 0 1 0.866025 -0.5 1 1 0 0 1 0 1 Z"/>
      <path id="shape78" fill-rule="nonzero" transform="matrix(-1.72189,-9.74642,12.1632,-3.3824,182.027,303.132)" fill="url(#gradient57)" d="M 0 1 A 1 1 0 0 1 -0.866025 -0.5 1 1 0 0 1 0.866025 -0.5 1 1 0 0 1 0 1 Z"/>
      <path id="shape79" fill-rule="nonzero" transform="matrix(3.52983,-3.17965,5.2175,3.40033,276.631,289.208)" fill="url(#gradient58)" d="M 0 1 A 1 1 0 0 1 -0.866025 -0.5 1 1 0 0 1 0.866025 -0.5 1 1 0 0 1 0 1 Z"/>
      <path id="shape80" fill-rule="nonzero" transform="matrix(3.52983,-3.17965,5.2175,3.40033,257.69,290.743)" fill="url(#gradient59)" d="M 0 1 A 1 1 0 0 1 -0.866025 -0.5 1 1 0 0 1 0.866025 -0.5 1 1 0 0 1 0 1 Z"/>
      <path id="shape81" fill-rule="nonzero" transform="matrix(3.52983,-3.17965,5.2175,3.40033,278.986,306.306)" fill="url(#gradient60)" d="M 0 1 A 1 1 0 0 1 -0.866025 -0.5 1 1 0 0 1 0.866025 -0.5 1 1 0 0 1 0 1 Z"/>
      <path id="shape82" fill-rule="nonzero" transform="matrix(3.52983,-3.17965,5.2175,3.40033,254.004,306.306)" fill="url(#gradient61)" d="M 0 1 A 1 1 0 0 1 -0.866025 -0.5 1 1 0 0 1 0.866025 -0.5 1 1 0 0 1 0 1 Z"/>
      <path id="shape83" fill-rule="nonzero" transform="matrix(9.8883,-3.44717,12.6866,7.37699,337.142,311.424)" fill="url(#gradient62)" d="M 0 1 A 1 1 0 0 1 -0.866025 -0.5 1 1 0 0 1 0.866025 -0.5 1 1 0 0 1 0 1 Z"/>
      <path id="shape84" fill-rule="nonzero" transform="matrix(9.8883,-3.44717,12.6866,7.37699,371.953,318.387)" fill="url(#gradient63)" d="M 0 1 A 1 1 0 0 1 -0.866025 -0.5 1 1 0 0 1 0.866025 -0.5 1 1 0 0 1 0 1 Z"/>
      <path id="shape85" fill-rule="nonzero" transform="matrix(9.8883,-3.44717,12.6866,7.37699,409.427,325.963)" fill="url(#gradient64)" d="M 0 1 A 1 1 0 0 1 -0.866025 -0.5 1 1 0 0 1 0.866025 -0.5 1 1 0 0 1 0 1 Z"/>
      <path id="shape86" fill-rule="nonzero" transform="matrix(7.49626,-2.79709,9.61765,5.98582,447.105,330.98)" fill="url(#gradient65)" d="M 0 1 A 1 1 0 0 1 -0.866025 -0.5 1 1 0 0 1 0.866025 -0.5 1 1 0 0 1 0 1 Z"/>
      <path id="shape87" fill-rule="nonzero" transform="matrix(9.27063,-1.09165,11.2931,5.17957,483.758,336.304)" fill="url(#gradient66)" d="M 0 1 A 1 1 0 0 1 -0.866025 -0.5 1 1 0 0 1 0.866025 -0.5 1 1 0 0 1 0 1 Z"/>
      <path id="shape88" fill-rule="nonzero" transform="matrix(9.00703,-2.71042,11.5559,5.80032,520.004,343.676)" fill="url(#gradient67)" d="M 0 1 A 1 1 0 0 1 -0.866025 -0.5 1 1 0 0 1 0.866025 -0.5 1 1 0 0 1 0 1 Z"/>
      <path id="shape89" fill-rule="nonzero" transform="matrix(4.5377,-2.75377,5.82182,5.89307,564.747,354.836)" fill="url(#gradient68)" d="M 0 1 A 1 1 0 0 1 -0.866025 -0.5 1 1 0 0 1 0.866025 -0.5 1 1 0 0 1 0 1 Z"/>
      <path id="shape90" fill-rule="nonzero" transform="matrix(4.34886,-1.2369,5.57953,2.64699,213.665,291.254)" fill="url(#gradient69)" d="M 0 1 A 1 1 0 0 1 -0.866025 -0.5 1 1 0 0 1 0.866025 -0.5 1 1 0 0 1 0 1 Z"/>
      <path id="shape91" fill-rule="nonzero" fill="white" fill-opacity="0.184314" d="M 434.14 598.526 L 434.14 604.9 437.916 604.9 Q 439.816 604.9 440.725 604.12 441.646 603.327 441.646 601.707 441.646 600.076 440.725 599.307 439.816 598.526 437.916 598.526 L 434.14 598.526 Z M 434.14 591.37 L 434.14 596.614 437.625 596.614 Q 439.35 596.614 440.189 595.973 441.04 595.321 441.04 593.992 441.04 592.675 440.189 592.023 439.35 591.37 437.625 591.37 L 434.14 591.37 Z M 431.786 589.436 L 437.8 589.436 Q 440.492 589.436 441.949 590.554 443.405 591.673 443.405 593.736 443.405 595.333 442.659 596.276 441.914 597.22 440.469 597.454 442.205 597.826 443.161 599.015 444.128 600.192 444.128 601.964 444.128 604.294 442.543 605.565 440.958 606.835 438.033 606.835 L 431.786 606.835 431.786 589.436 Z"/>
      <path id="shape92" fill-rule="nonzero" fill="white" fill-opacity="0.184314" d="M 448.055 588.701 L 450.2 588.701 450.2 606.835 448.055 606.835 448.055 588.701 Z"/>
      <path id="shape93" fill-rule="nonzero" fill="white" fill-opacity="0.184314" d="M 454.453 601.684 L 454.453 593.783 456.598 593.783 456.598 601.602 Q 456.598 603.455 457.32 604.388 458.043 605.308 459.488 605.308 461.224 605.308 462.226 604.201 463.24 603.094 463.24 601.183 L 463.24 593.783 465.385 593.783 465.385 606.835 463.24 606.835 463.24 604.831 Q 462.46 606.019 461.422 606.602 460.397 607.173 459.033 607.173 456.784 607.173 455.619 605.774 454.453 604.376 454.453 601.684 Z"/>
      <path id="shape94" fill-rule="nonzero" fill="white" fill-opacity="0.184314" d="M 480.989 599.773 L 480.989 600.822 471.13 600.822 Q 471.27 603.036 472.459 604.201 473.659 605.355 475.792 605.355 477.027 605.355 478.181 605.052 479.346 604.749 480.488 604.143 L 480.488 606.171 Q 479.334 606.66 478.122 606.917 476.91 607.173 475.663 607.173 472.54 607.173 470.711 605.355 468.892 603.537 468.892 600.437 468.892 597.232 470.617 595.356 472.354 593.468 475.29 593.468 477.924 593.468 479.451 595.169 480.989 596.859 480.989 599.773 Z M 478.845 599.143 Q 478.822 597.384 477.854 596.335 476.899 595.286 475.314 595.286 473.519 595.286 472.435 596.3 471.363 597.314 471.2 599.155 L 478.845 599.143 Z"/>
      <path id="shape95" fill-rule="nonzero" fill="white" fill-opacity="0.184314" d="M 494.554 591.37 L 494.554 604.9 497.398 604.9 Q 500.999 604.9 502.666 603.269 504.344 601.637 504.344 598.118 504.344 594.622 502.666 593.002 500.999 591.37 497.398 591.37 L 494.554 591.37 Z M 492.2 589.436 L 497.037 589.436 Q 502.095 589.436 504.46 591.545 506.826 593.643 506.826 598.118 506.826 602.616 504.449 604.726 502.071 606.835 497.037 606.835 L 492.2 606.835 492.2 589.436 Z"/>
      <path id="shape96" fill-rule="nonzero" fill="white" fill-opacity="0.184314" d="M 518.037 595.787 Q 517.676 595.577 517.245 595.484 516.825 595.379 516.312 595.379 514.494 595.379 513.515 596.568 512.548 597.745 512.548 599.959 L 512.548 606.835 510.392 606.835 510.392 593.783 512.548 593.783 512.548 595.81 Q 513.224 594.622 514.308 594.051 515.392 593.468 516.942 593.468 517.163 593.468 517.431 593.503 517.699 593.526 518.026 593.584 L 518.037 595.787 Z"/>
      <path id="shape97" fill-rule="nonzero" fill="white" fill-opacity="0.184314" d="M 526.242 600.274 Q 523.643 600.274 522.641 600.868 521.638 601.462 521.638 602.896 521.638 604.038 522.384 604.714 523.142 605.378 524.435 605.378 526.218 605.378 527.29 604.12 528.374 602.849 528.374 600.752 L 528.374 600.274 526.242 600.274 Z M 530.519 599.388 L 530.519 606.835 528.374 606.835 528.374 604.854 Q 527.64 606.042 526.545 606.614 525.449 607.173 523.864 607.173 521.86 607.173 520.671 606.054 519.494 604.924 519.494 603.036 519.494 600.833 520.962 599.714 522.442 598.596 525.367 598.596 L 528.374 598.596 528.374 598.386 Q 528.374 596.906 527.395 596.102 526.428 595.286 524.668 595.286 523.549 595.286 522.489 595.554 521.428 595.822 520.45 596.358 L 520.45 594.377 Q 521.627 593.922 522.734 593.701 523.841 593.468 524.89 593.468 527.722 593.468 529.12 594.936 530.519 596.405 530.519 599.388 Z"/>
      <path id="shape98" fill-rule="nonzero" fill="white" fill-opacity="0.184314" d="M 543.536 600.157 Q 543.536 597.826 542.569 596.545 541.613 595.263 539.877 595.263 538.152 595.263 537.185 596.545 536.229 597.826 536.229 600.157 536.229 602.476 537.185 603.758 538.152 605.04 539.877 605.04 541.613 605.04 542.569 603.758 543.536 602.476 543.536 600.157 Z M 545.68 605.215 Q 545.68 608.548 544.2 610.168 542.72 611.8 539.667 611.8 538.536 611.8 537.534 611.625 536.532 611.462 535.588 611.112 L 535.588 609.026 Q 536.532 609.539 537.453 609.783 538.373 610.028 539.329 610.028 541.438 610.028 542.487 608.921 543.536 607.826 543.536 605.6 L 543.536 604.539 Q 542.872 605.693 541.835 606.264 540.797 606.835 539.352 606.835 536.952 606.835 535.483 605.005 534.015 603.176 534.015 600.157 534.015 597.127 535.483 595.298 536.952 593.468 539.352 593.468 540.797 593.468 541.835 594.039 542.872 594.61 543.536 595.764 L 543.536 593.783 545.68 593.783 545.68 605.215 Z"/>
      <path id="shape99" fill-rule="nonzero" fill="white" fill-opacity="0.184314" d="M 555.155 595.286 Q 553.43 595.286 552.428 596.638 551.426 597.978 551.426 600.32 551.426 602.663 552.416 604.015 553.419 605.355 555.155 605.355 556.868 605.355 557.87 604.003 558.873 602.651 558.873 600.32 558.873 598.001 557.87 596.649 556.868 595.286 555.155 595.286 Z M 555.155 593.468 Q 557.952 593.468 559.549 595.286 561.145 597.104 561.145 600.32 561.145 603.525 559.549 605.355 557.952 607.173 555.155 607.173 552.346 607.173 550.75 605.355 549.165 603.525 549.165 600.32 549.165 597.104 550.75 595.286 552.346 593.468 555.155 593.468 Z"/>
      <path id="shape100" fill-rule="nonzero" fill="white" fill-opacity="0.184314" d="M 575.538 598.957 L 575.538 606.835 573.393 606.835 573.393 599.027 Q 573.393 597.174 572.671 596.253 571.948 595.333 570.503 595.333 568.767 595.333 567.765 596.44 566.762 597.547 566.762 599.458 L 566.762 606.835 564.606 606.835 564.606 593.783 566.762 593.783 566.762 595.81 Q 567.531 594.633 568.569 594.051 569.617 593.468 570.981 593.468 573.23 593.468 574.384 594.866 575.538 596.253 575.538 598.957 Z"/>
      <path id="shape101" fill-rule="nonzero" fill="white" fill-opacity="0.184314" d="M 586.446 588.701 L 586.446 590.484 584.395 590.484 Q 583.241 590.484 582.786 590.951 582.344 591.417 582.344 592.629 L 582.344 593.783 585.875 593.783 585.875 595.449 582.344 595.449 582.344 606.835 580.188 606.835 580.188 595.449 578.137 595.449 578.137 593.783 580.188 593.783 580.188 592.874 Q 580.188 590.694 581.202 589.704 582.215 588.701 584.418 588.701 L 586.446 588.701 Z"/>
      <path id="shape102" fill-rule="nonzero" fill="white" fill-opacity="0.184314" d="M 588.229 588.701 L 590.373 588.701 590.373 606.835 588.229 606.835 588.229 588.701 Z"/>
      <path id="shape103" fill-rule="nonzero" fill="white" fill-opacity="0.184314" d="M 600.279 608.047 Q 599.37 610.378 598.508 611.089 597.645 611.8 596.2 611.8 L 594.487 611.8 594.487 610.005 595.746 610.005 Q 596.631 610.005 597.121 609.585 597.61 609.166 598.205 607.604 L 598.589 606.625 593.31 593.783 595.583 593.783 599.661 603.991 603.74 593.783 606.013 593.783 600.279 608.047 Z"/>
      <path id="shape104" fill-rule="nonzero" fill="white" fill-opacity="0.184314" d="M 554.595 613.595 Q 554.595 612.761 554.25 612.288 553.909 611.811 553.308 611.811 552.708 611.811 552.362 612.288 552.021 612.761 552.021 613.595 552.021 614.43 552.362 614.907 552.708 615.38 553.308 615.38 553.909 615.38 554.25 614.907 554.595 614.43 554.595 613.595 Z M 552.021 611.987 Q 552.259 611.576 552.621 611.379 552.987 611.177 553.493 611.177 554.332 611.177 554.854 611.844 555.381 612.51 555.381 613.595 555.381 614.681 554.854 615.347 554.332 616.014 553.493 616.014 552.987 616.014 552.621 615.816 552.259 615.615 552.021 615.203 L 552.021 615.894 551.26 615.894 551.26 609.495 552.021 609.495 552.021 611.987 Z"/>
      <path id="shape105" fill-rule="nonzero" fill="white" fill-opacity="0.184314" d="M 558.552 616.322 Q 558.231 617.145 557.927 617.396 557.622 617.646 557.112 617.646 L 556.508 617.646 556.508 617.013 556.952 617.013 Q 557.264 617.013 557.437 616.865 557.61 616.717 557.82 616.166 L 557.955 615.82 556.092 611.288 556.894 611.288 558.334 614.891 559.773 611.288 560.575 611.288 558.552 616.322 Z"/>
      <path id="shape106" fill-rule="nonzero" fill="white" fill-opacity="0.184314" d="M 567.332 613.538 Q 567.332 612.715 566.991 612.263 566.654 611.811 566.041 611.811 565.432 611.811 565.091 612.263 564.753 612.715 564.753 613.538 564.753 614.356 565.091 614.809 565.432 615.261 566.041 615.261 566.654 615.261 566.991 614.809 567.332 614.356 567.332 613.538 Z M 568.089 615.323 Q 568.089 616.499 567.567 617.071 567.044 617.646 565.967 617.646 565.568 617.646 565.214 617.585 564.86 617.527 564.527 617.404 L 564.527 616.668 Q 564.86 616.849 565.185 616.935 565.51 617.021 565.847 617.021 566.592 617.021 566.962 616.631 567.332 616.244 567.332 615.458 L 567.332 615.084 Q 567.098 615.491 566.732 615.693 566.366 615.894 565.856 615.894 565.008 615.894 564.49 615.249 563.972 614.603 563.972 613.538 563.972 612.469 564.49 611.823 565.008 611.177 565.856 611.177 566.366 611.177 566.732 611.379 567.098 611.58 567.332 611.987 L 567.332 611.288 568.089 611.288 568.089 615.323 Z"/>
      <path id="shape107" fill-rule="nonzero" fill="white" fill-opacity="0.184314" d="M 573.476 613.114 L 573.476 615.894 572.72 615.894 572.72 613.139 Q 572.72 612.485 572.465 612.16 572.21 611.835 571.7 611.835 571.087 611.835 570.733 612.226 570.38 612.617 570.38 613.291 L 570.38 615.894 569.619 615.894 569.619 609.495 570.38 609.495 570.38 612.004 Q 570.651 611.589 571.017 611.383 571.387 611.177 571.868 611.177 572.662 611.177 573.069 611.671 573.476 612.16 573.476 613.114 Z"/>
      <path id="shape108" fill-rule="nonzero" fill="white" fill-opacity="0.184314" d="M 574.916 614.077 L 574.916 611.288 575.672 611.288 575.672 614.048 Q 575.672 614.702 575.927 615.031 576.182 615.356 576.692 615.356 577.305 615.356 577.659 614.965 578.017 614.574 578.017 613.9 L 578.017 611.288 578.773 611.288 578.773 615.894 578.017 615.894 578.017 615.187 Q 577.741 615.607 577.375 615.812 577.013 616.014 576.532 616.014 575.738 616.014 575.327 615.52 574.916 615.027 574.916 614.077 Z"/>
      <path id="shape109" fill-rule="nonzero" fill="white" fill-opacity="0.184314" d="M 580.262 614.077 L 580.262 611.288 581.019 611.288 581.019 614.048 Q 581.019 614.702 581.274 615.031 581.529 615.356 582.039 615.356 582.651 615.356 583.005 614.965 583.363 614.574 583.363 613.9 L 583.363 611.288 584.12 611.288 584.12 615.894 583.363 615.894 583.363 615.187 Q 583.087 615.607 582.721 615.812 582.359 616.014 581.878 616.014 581.085 616.014 580.673 615.52 580.262 615.027 580.262 614.077 Z"/>
      <path id="shape110" fill-rule="nonzero" fill="white" fill-opacity="0.184314" d="M 585.687 609.495 L 586.443 609.495 586.443 615.894 585.687 615.894 585.687 609.495 Z"/>
    </g>
  </g>
</svg>
