<?xml version="1.0" standalone="no"?>
<svg
  xmlns:xlink="http://www.w3.org/1999/xlink"
  xmlns:dc="http://purl.org/dc/elements/1.1/"
  xmlns:cc="http://creativecommons.org/ns#"
  xmlns:rdf="http://www.w3.org/1999/02/22-rdf-syntax-ns#"
  xmlns:svg="http://www.w3.org/2000/svg"
  xmlns="http://www.w3.org/2000/svg"
  version="1.1"
  preserveAspectRatio="none"
  width="256" height="256"
  viewBox="0 0 256 256">
  <defs>
  </defs>
  <g transform="matrix(1,0,0,-1,0,256)"> <!-- invert y -->
    <g transform="translate(0,192)"> <!-- scene-transformation -->
      <path id="shape0" fill-rule="nonzero" fill="rgb(204,250,167)" d="M 1 -63 L 87 -183 30 -138 1 -63 Z"/>
      <path id="shape1" fill-rule="nonzero" fill="rgb(201,98,50)" d="M 87 56 L 1 -63 30 10 87 56 Z"/>
      <path id="shape2" fill-rule="nonzero" fill="rgb(85,51,51)" d="M 228 10 L 87 56 170 56 228 10 Z"/>
      <path id="shape3" fill-rule="nonzero" fill="rgb(56,56,95)" d="M 228 -137 L 228 10 255 -63 228 -137 Z"/>
      <path id="shape4" fill-rule="nonzero" fill="rgb(143,54,79)" d="M 228 10 L 124 -63 87 56 228 10 Z"/>
      <path id="shape5" fill-rule="nonzero" fill="rgb(85,77,174)" d="M 124 -63 L 228 10 228 -137 124 -63 Z"/>
      <path id="shape6" fill-rule="nonzero" fill="rgb(251,165,109)" d="M 124 -63 L 1 -63 87 56 124 -63 Z"/>
      <path id="shape7" fill-rule="nonzero" fill="rgb(254,254,225)" d="M 87 -183 L 1 -63 124 -63 87 -183 Z"/>
      <path id="shape8" fill-rule="nonzero" fill="rgb(152,208,255)" d="M 87 -183 L 124 -63 228 -137 87 -183 Z"/>
      <path id="shape9" fill-rule="nonzero" fill="rgb(50,159,231)" d="M 168 -183 L 87 -183 228 -137 168 -183 Z"/>
    </g>
  </g>
</svg>
