<?xml version="1.0" standalone="no"?>
<svg
  xmlns:xlink="http://www.w3.org/1999/xlink"
  xmlns:dc="http://purl.org/dc/elements/1.1/"
  xmlns:cc="http://creativecommons.org/ns#"
  xmlns:rdf="http://www.w3.org/1999/02/22-rdf-syntax-ns#"
  xmlns:svg="http://www.w3.org/2000/svg"
  xmlns="http://www.w3.org/2000/svg"
  version="1.1"
  preserveAspectRatio="none"
  width="652" height="717"
  viewBox="0 0 651.027 716.094">
  <defs>
    <linearGradient id="gradient0" gradientUnits="userSpaceOnUse" x1="577.91" y1="265.57" x2="589.3" y2="240.061" spreadMethod="pad" gradientTransform="matrix(0.808885,0,0,1.23627,-32.2194,-28.8621)">
      <stop offset="0" stop-color="rgb(115,125,87)"/>
      <stop offset="1" stop-color="rgb(171,184,143)"/>
    </linearGradient>
  </defs>
  <g> <!-- invert y -->
    <g> <!-- scene-transformation -->
      <path id="shape0" fill-rule="evenodd" fill="rgb(171,184,143)" d="M 222.794 135.699 L 459.138 188.35 521.149 319.392 626.451 515.956 644.001 559.246 489.558 676.248 439.247 683.268 343.306 694.969 349.741 671.568 337.456 646.998 320.279 668.761 303.732 686.962 290.879 688.859 258.229 692.754 202.798 705.991 181.288 658.006 169.705 653.869 148.195 648.078 132.475 629.049 135.785 610.848 140.749 598.438 123.375 562.863 113.447 532.252 78.699 496.677 80.3537 480.13 84.4904 467.72 78.699 456.965 88.627 434.627 107.655 409.807 101.037 391.606 88.627 384.987 78.699 384.987 72.0804 376.714 67.9438 306.391 72.0804 293.981 80.3537 266.679 76.2171 226.14 67.9438 167.4"/>
      <path id="shape1" fill-rule="evenodd" fill="rgb(114,125,86)" d="M 453.481 506.603 C 452.929 480.404 449.896 452.551 455.963 428.007 461.478 411.736 466.167 400.429 479.955 399.05 494.571 402.635 504.224 421.939 506.43 437.934 517.737 459.721 524.079 482.335 526.286 504.121 525.458 524.804 518.013 552.934 508.912 586.854 L 546.142 495.848 C 553.036 493.09 559.931 487.85 568.48 489.229 577.856 493.366 583.096 499.984 587.508 514.876 586.681 523.701 589.163 523.425 584.199 532.25 594.954 532.25 606.788 565.369 611.752 584.398 624.847 573.568 636.915 565.102 644.361 558.207 L 558.138 371.334 473.957 257.369 C 466.925 285.223 461.754 296.323 453.274 311.56 458.031 325.28 460.306 352.444 460.513 358.511 457.962 364.991 456.445 367.956 449.137 368.025 442.45 365.06 430.798 360.648 424.731 353.547 L 422.042 374.23 436.934 403.187 438.589 440.417 453.481 506.603 453.481 506.603 453.481 506.603 453.481 506.603 453.481 506.603 453.481 506.603 453.481 506.603 453.481 506.603 453.481 506.603 453.481 506.603 453.481 506.603 453.481 506.603 Z"/>
      <path id="shape2" fill-rule="evenodd" fill="white" d="M 227.412 349.824 L 271.467 349.204 251.818 368.232 235.892 380.229 203.626 384.986 192.457 379.608 213.554 353.754 227.412 349.824 Z"/>
      <path id="shape3" fill-rule="evenodd" fill="rgb(115,125,87)" d="M 146.451 181.327 C 158.931 177.037 169.364 175.087 183.014 176.647 198.998 181.132 203.684 183.72 212.265 193.612 L 231.277 302.717 C 227.661 306.879 324.155 329.172 321.671 326.339 311.422 316.319 338.181 307.88 335.274 306.879 324.772 301.982 302.124 291.644 294.826 290.396 278.087 289.549 302.517 274.707 299.534 274.434 263.36 271.177 279.9 264.735 275.683 264.289 269.328 264.498 258.316 264.958 261.552 261.473 266.427 254.648 284.757 252.796 292.411 253.868 284.319 245.97 270.083 239.243 266.671 232.223 263.746 223.643 265.501 215.647 275.446 208.237 284.806 209.407 291.826 221.693 298.261 235.148 326.732 258.353 334.727 268.103 345.062 290.139 L 346.817 334.015 391.264 374.463 379.774 350.425 390.622 365.685 C 383.283 336.925 383.59 319.254 385.511 290.051 393.326 280.988 400.728 273.166 411.439 266.585 355.826 228.427 305.177 176.205 252.045 131.016 L 76.8343 167.579 76.5418 225.203 C 79.2719 211.747 81.7094 202.972 91.4597 194.197 100.527 189.225 116.323 191.857 129.193 198.292 133.483 190.589 138.651 186.104 146.451 181.327 L 146.451 181.327 146.451 181.327 146.451 181.327 146.451 181.327 146.451 181.327 146.451 181.327 Z"/>
      <path id="shape4" fill-rule="evenodd" fill="rgb(166,153,115)" d="M 53.7261 302.719 L 70.3989 307.106 82.6842 312.079 87.0717 320.269 99.0645 326.119 105.5 338.404 90.8743 373.505 80.4904 374.967 69.9602 369.41 54.8962 364.145 42.0259 366.485 43.1959 360.635 49.3386 357.71 40.5634 350.251 49.3386 344.254 50.2161 320.854 53.7261 317.344 53.7261 302.719 Z"/>
      <path id="shape5" fill-rule="evenodd" fill="rgb(166,153,115)" d="M 78.6992 269.161 L 77.0445 236.068 80.3538 182.292 96.9004 177.328 111.792 188.083 120.066 193.874 128.147 197.819 138.267 174.018 175.497 161.608 208.59 175.673 215.208 198.011 208.59 231.104 211.072 256.751 221.978 275.834 245.92 278.148 247.232 261.619 260.712 247.651 249.956 227.795 266.503 202.147 263.194 183.946 254.92 169.882 268.985 175.673 287.186 202.147 295.459 221.176 331.035 254.269 343.444 273.298 347.581 312.182 350.063 331.211 376.538 345.275 379.02 287.362 384.811 281.571 420.386 243.514 446.861 212.903 450.997 231.104 457.616 236.068 457.616 245.996 471.68 254.269 477.472 260.061 469.006 287.947 457.616 310.528 467.913 344.547 476.688 344.547 488.388 361.513 487.218 347.472 498.334 363.268 507.109 389.593 511.789 415.919 505.939 433.469 515.884 453.944 524.659 468.57 529.339 465.644 536.359 477.345 543.964 471.495 563.27 443.999 563.27 452.774 579.065 472.665 590.765 499.575 583.745 529.996 590.765 527.071 590.765 545.791 602.465 568.021 607.146 558.076 620.016 549.301 634.641 525.901 634.641 494.895 609.486 428.789 605.391 423.524 599.54 379.063 583.745 312.372 553.91 293.067 526.414 236.906 510.619 189.52 507.694 132.774 469.083 78.9529 433.983 42.0973 429.887 33.3221 397.712 24.547 368.461 14.6018 353.836 18.6969 349.156 11.6768 314.055 12.8468 304.11 14.6018 302.94 8.75176 286.56 14.6018 259.064 37.4172 233.909 53.7975 229.814 58.4776 C 229.814 58.4776 188.278 63.7426 188.278 62.5726 188.278 61.4027 144.403 67.2527 144.403 67.2527 L 123.927 81.293 97.6018 94.7482 87.6566 108.203 47.8759 115.223 30.3256 131.604 21.5505 141.549 19.7954 150.324 24.4755 170.799 15.7004 197.125 9.85029 208.825 53.7261 257.381 64.2562 276.101 71.2763 290.726"/>
      <path id="shape6" fill-rule="evenodd" fill="rgb(166,153,115)" d="M 165.569 343.62 L 178.806 325.832 185.011 319.627 184.184 313.422 228.86 277.02 246.234 278.261 255.748 265.851 264.849 266.678 264.849 269.987 266.917 272.056 275.19 271.228 287.6 278.261 277.259 288.602 288.937 294.807 302.906 293.98 313.661 299.892 322.762 303.08 327.726 307.217 310.352 316.318 244.165 334.105 206.936 355.616 188.321 371.335 180.068 374.135 170.437 373.938 163.501 369.267 162.26 348.584 165.569 343.62 Z"/>
      <path id="shape7" fill-rule="evenodd" fill="url(#gradient0)" d="M 431.644 259.719 L 457.969 273.759 442.31 328.165 433.263 340.451 420.529 335.185 408.828 313.54 405.147 312.683"/>
      <path id="shape8" fill-rule="evenodd" fill="rgb(114,125,86)" d="M 428.661 409.805 L 445.207 471.855 459.272 597.61 C 448.241 593.473 440.519 592.645 427.833 593.473 407.977 601.746 383.158 620.775 364.956 649.731 356.407 664.072 351.167 678.412 343.446 692.753 L 349.237 667.933 335.172 645.595 391.431 582.718 426.179 554.588 436.934 527.286 436.934 473.51 427.833 448.69 428.661 409.805 428.661 409.805 Z"/>
      <path id="shape9" fill-rule="evenodd" fill="rgb(115,125,87)" d="M 171.774 385.535 L 164.771 386.711 C 167.159 392.408 166.308 393.696 166.355 398.223 166.489 409.092 164.868 417.037 159.736 430.831 L 183.445 408.434 230.371 425.192 C 213.955 416.323 197.125 408.282 187.327 399.413 185.496 395.236 184.491 388.577 186.796 382.332 L 182.116 381.191 171.774 385.535 Z"/>
      <path id="shape10" fill-rule="evenodd" fill="rgb(115,125,87)" d="M 81.8069 494.308 C 87.657 498.598 92.3371 502.303 99.3572 505.423 105.987 505.423 110.277 504.838 115.738 503.083 L 115.738 528.239 89.412 513.614 81.8069 494.308 81.8069 494.308 Z"/>
      <path id="shape11" fill-rule="evenodd" fill="rgb(115,125,87)" d="M 345.101 551.278 L 342.205 592.645 323.59 602.987 260.299 646.835 202.386 662.968 194.113 669.173 178.393 655.109 160.192 652.627 137.027 636.08 132.89 622.843 C 152.194 652.902 169.431 654.005 221.828 648.49 250.647 645.18 267.469 638.562 293.392 613.742 307.871 599.126 320.281 588.646 330.622 569.893 334.208 555.691 330.347 553.485 321.108 556.656 323.233 539.435 305.578 499.049 310.446 504.116 326.854 522.416 320.328 496.293 301.685 473.807 319.643 484.389 326.487 502.576 345.615 541.823 L 345.101 551.278 345.101 551.278 345.101 551.278 345.101 551.278 345.101 551.278 345.101 551.278 345.101 551.278 345.101 551.278 Z"/>
      <path id="shape12" fill-rule="evenodd" fill="rgb(115,125,87)" d="M 280.417 346.009 C 272.103 336.463 276.198 327.744 292.703 322.334 L 251.459 332.847 225.134 344.547 206.414 356.393 229.375 349.958 271.35 349.081 280.417 346.009 280.417 346.009 Z"/>
      <path id="shape13" fill-rule="evenodd" fill="rgb(245,238,225)" d="M 119.239 550.452 L 140.749 600.092 135.372 603.815 117.17 575.272 119.239 550.452 Z"/>
      <path id="shape14" fill-rule="evenodd" fill="rgb(245,238,225)" d="M 290.496 496.675 L 308.284 504.949 326.485 538.042 324.83 550.452 317.384 558.725 307.043 560.794 294.633 553.348 287.187 508.672 290.496 496.675 Z"/>
      <path id="shape15" fill-rule="evenodd" fill="rgb(115,125,87)" d="M 114.275 243.632 C 141.965 238.659 138.422 239.995 152.852 231.317 132.28 238.435 132.8 236.222 110.765 239.244 100.722 240.512 102.371 241.194 89.9882 241.292 97.3984 243.534 100.722 244.705 114.275 243.632 Z"/>
      <path id="shape16" fill-rule="evenodd" fill="rgb(115,125,87)" d="M 102.583 272.297 C 115.161 277.799 123.301 276.753 142.355 267.91 158.151 258.745 167.833 250.114 184.213 237.732 L 153.47 269.08 C 145.865 273.468 134.295 276.614 121.989 278.762 109.216 279.64 111.545 280.467 101.405 278.127 L 78.5891 267.91 102.583 272.297 Z"/>
      <path id="shape17" fill-rule="evenodd" fill="rgb(115,125,87)" d="M 108.897 413.115 C 112.758 403.739 119.928 397.671 134.544 390.363 L 104.76 397.396 108.897 413.115 Z"/>
      <path id="shape18" fill-rule="evenodd" fill="rgb(115,125,87)" d="M 82.4224 462.755 C 90.5578 468.132 95.3839 469.373 101.865 466.478 L 99.7964 483.024 82.4224 462.755 Z"/>
      <path id="shape19" fill-rule="evenodd" fill="rgb(115,125,87)" d="M 203.213 414.356 C 214.933 422.353 221.276 430.351 225.964 438.348 227.619 450.345 218.932 456.963 209.831 458.204 L 202.385 461.1 194.526 473.51 C 175.773 483.024 171.912 486.609 162.674 484.265 157.985 488.953 158.675 489.091 149.85 492.125 L 132.062 497.503 157.296 511.567 C 159.364 505.5 163.087 502.742 167.224 497.089 177.772 489.022 182.943 485.92 205.074 472.889 L 246.234 441.244 232.583 428.007 203.213 414.356 203.213 414.356 Z"/>
      <path id="shape20" fill-rule="evenodd" fill="rgb(114,125,86)" d="M 436.728 256.541 L 424.731 268.951 404.048 309.284 396.228 312.653 C 403.543 298.468 408.699 286.839 415.51 273.944 420.181 266.706 433.884 252.613 445.122 241.169 L 436.728 256.541 Z"/>
      <path id="shape21" fill-rule="evenodd" fill="rgb(115,125,87)" d="M 302.905 434.213 C 331.724 445.796 356.819 472.271 364.541 485.094 368.264 492.264 376.124 508.673 377.778 533.079 374.745 525.082 375.021 524.116 371.573 519.015 371.849 546.041 373.366 547.42 369.505 574.859 L 361.645 499.986 331.862 456.138 302.905 435.454 302.905 434.213 Z"/>
      <path id="shape22" fill-rule="evenodd" fill="rgb(100,80,56)" d="M 408.242 256.795 C 405.366 251.774 402.929 249.824 401.807 240.415 394.056 234.37 376.213 228.325 377.237 222.28 367.877 211.993 371.094 209.166 370.217 202.682 364.562 198.392 355.689 186.35 361.734 184.985 360.71 183.913 353.008 178.891 352.666 165.534 L 316.396 143.888 329.266 163.779 348.571 178.989 356.762 196.539 340.966 184.839 370.217 233.98 392.447 250.204 C 384.128 258.849 377.576 264.4 369.256 273.045 361.743 277.023 358.258 276.854 344.52 275.333 L 348.056 326.27 377.224 344.503 378.992 288.386 408.242 256.795 408.242 256.795 408.242 256.795 Z"/>
      <path id="shape23" fill-rule="evenodd" fill="rgb(100,80,56)" d="M 449.193 219.94 L 460.308 222.28 463.818 231.64 466.743 232.81 466.158 242.755 476.689 247.435 476.689 251.53 487.219 262.06 C 482.344 277.076 471.326 301.744 471.716 308.569 471.911 314.809 484.099 324.266 489.559 328.752 L 493.654 331.677 503.599 349.227 519.979 397.198 523.788 412.252 C 529.139 415.412 537.875 415.03 543.381 411.505 545.762 404.928 541.393 385.323 535.429 348.042 538.735 330.319 539.541 321.346 534.722 307.998 L 505.565 268.661 498.252 260.374 483.425 217.616 483.183 200.932 471.45 171.873 453.089 113.979 C 447.658 80.6167 432.299 50.9773 390.88 22.5786 L 427.122 33.7665 434.408 41.6451 466.101 75.5847 508.548 134.758 507.975 171.593 513.193 198.5 526.209 234.85 555.135 291.529 584.945 311.968 600.242 378.257 607.584 428.193 636.14 497.575 635.969 523.646 620.772 548.392 606.017 557.227 604.65 566.478 592.235 543.467 589.984 527.086 585.081 527.498 590.344 495.648 563.344 452.308 561.093 445.207 538.07 478.526 528.747 463.231 521.149 466.229 505.354 434.053 510.034 406.558 505.354 378.477 486.634 345.132 488.974 363.852 474.934 342.207 471.424 346.302 463.233 345.132 457.383 308.276 467.328 291.896 479.029 260.305 469.083 249.775 457.383 245.68 457.383 235.15 450.948 228.13 449.193 219.94 449.193 219.94 449.193 219.94 449.193 219.94 449.193 219.94 449.193 219.94 449.193 219.94 449.193 219.94 Z"/>
      <path id="shape24" fill-rule="evenodd" fill="rgb(100,80,56)" d="M 164.878 367.947 C 168.291 370.044 171.118 369.068 174.238 366.777 176.286 360.976 177.895 359.562 181.258 355.37 188.035 348.057 196.127 342.06 204.951 335.625 213.58 330.165 222.648 324.266 232.739 319.391 L 204.659 339.867 184.183 357.417 184.476 362.682 C 190.618 360.732 196.761 357.612 202.904 353.322 209.485 347.764 214.165 342.061 221.039 336.21 229.327 331.725 239.369 330.019 251.46 324.071 256.335 321.731 260.478 319.099 266.085 317.051 272.91 316.028 279.443 317.783 286.56 317.051 298.212 313.395 314.104 309.446 327.803 306.814 L 318.736 312.371 288.315 324.071 261.99 325.827 238.589 336.942 207.876 355.223 194.129 367.947 181.258 374.236 170.436 374.09 164.878 370.872 164.878 367.947 164.878 367.947 164.878 367.947 164.878 367.947 164.878 367.947 164.878 367.947 164.878 367.947 164.878 367.947 Z"/>
      <path id="shape25" fill-rule="evenodd" fill="rgb(100,80,56)" d="M 51.971 155.588 L 77.1265 170.214 81.2215 178.989 54.8961 167.874 49.046 166.119 C 54.8961 169.629 62.2087 173.139 66.5963 176.649 68.4488 178.404 68.5463 180.159 69.5213 181.914 63.9637 187.667 62.5012 192.249 58.9911 205.314 58.1136 213.699 64.8412 222.085 67.7663 230.47 66.9863 233.395 65.6213 234.857 65.4263 239.245 65.7188 248.118 71.8614 256.698 70.6914 268.495 68.4489 269.471 63.2813 264.595 59.5762 262.645 L 71.2764 293.651 80.0515 268.495 76.5415 224.62 82.3916 183.669 94.0918 179.574 100.527 177.819 113.397 190.689 128.022 197.124 137.968 173.724 C 137.968 173.724 191.203 165.534 192.373 167.289 193.544 169.044 207.584 171.969 209.339 171.969 203.781 154.418 183.696 149.543 171.898 147.398 159.515 147.691 149.765 150.908 140.893 156.173 136.115 159.879 134.555 163.584 132.702 167.289 L 125.097 157.343 123.927 151.493 116.322 162.024 105.792 153.248 116.322 174.894 106.377 170.799 95.8468 161.439 51.971 155.588 51.971 155.588 Z"/>
      <path id="shape26" fill-rule="evenodd" fill="rgb(100,80,56)" d="M 25.6456 176.064 L 34.4208 217.014 35.5908 225.79 43.1959 232.81 51.971 253.285 16.8704 214.089 9.26531 205.314 19.7955 190.689 25.6456 176.064 Z"/>
      <path id="shape27" fill-rule="evenodd" fill="rgb(100,80,56)" d="M 115.152 95.3324 C 117.856 94.0325 121.002 95.1634 123.927 94.7474 129.355 93.1808 134.23 91.3932 138.553 87.7273 140.925 89.8658 143.629 91.2307 147.328 91.8224 153.984 90.2557 160.419 87.9157 166.633 84.8022 169.396 87.2721 173.042 88.3056 176.578 88.8972 184.209 86.9406 189.744 83.8508 199.222 81.7413 217.163 80.5652 239.033 90.5581 253.043 88.141 L 270.086 77.7404 C 275.685 79.7994 286.456 64.4843 298.26 58.4767 309.068 61.2896 327.126 66.7085 363.197 62.5718 369.224 63.0149 379.388 68.8356 392.447 71.347 400.637 78.3671 415.622 98.2926 427.542 111.99 429.303 117.255 430.295 122.928 434.668 129.89 433.906 140.012 443.343 169.629 443.343 169.629 L 419.464 119.282 407.072 99.4275 382.502 77.7821 371.972 74.857 288.9 71.347 277.2 80.7071 252.387 89.4823 229.814 90.6523 197.639 90.6523 186.523 97.6724 170.728 99.4275 153.763 99.4275 152.008 103.523 141.478 103.523 133.287 103.523 125.682 105.278 107.072 111.615 C 107.072 111.615 112.643 102.307 115.152 95.3324 Z"/>
      <path id="shape28" fill-rule="evenodd" fill="rgb(100,80,56)" d="M 267.84 171.969 L 253.8 170.799 262.575 183.669 262.575 194.199 250.29 183.084 246.194 170.214 229.814 133.943 241.807 142.718 239.174 126.923 C 239.174 126.923 245.707 142.718 252.337 152.371 259.357 161.731 265.11 168.264 267.84 171.969 Z"/>
      <path id="shape29" fill-rule="evenodd" fill="rgb(100,80,56)" d="M 208.754 229.3 C 211.094 238.465 212.556 247.63 217.529 256.795 218.991 260.695 223.672 268.69 226.304 268.495 227.864 268.495 229.424 267.911 230.984 266.74 L 225.134 256.795 224.549 252.115 C 226.694 254.65 228.839 257.185 230.984 259.72 232.349 262.255 233.129 264.79 235.079 267.325 239.467 268.398 242.392 267.715 243.854 262.645 244.439 259.33 243.854 254.845 243.854 250.945 L 249.705 228.715 259.65 242.17 254.385 256.795 246.779 262.645 247.949 280.196 220.454 274.346 208.754 252.7 207.584 235.442 208.754 229.3 Z"/>
      <path id="shape30" fill-rule="evenodd" fill="rgb(100,80,56)" d="M 287.73 276.101 L 278.37 288.835 289.049 294.891 287.25 296.568 C 278.99 298.33 264.709 302.581 255.356 307.78 262.565 301.261 277.214 298.64 281.766 293.995 279.362 292.415 269.832 289.749 265.084 288.169 L 274.634 281.678 263.709 274.895 248.827 273.539 256.518 265.535 264.33 267.325 264.33 270.25 267.255 272.005 274.275 272.005 287.73 276.101 287.73 276.101 287.73 276.101 287.73 276.101 287.73 276.101 Z"/>
      <path id="shape31" fill-rule="evenodd" fill="rgb(99,79,55)" d="M 58.9912 362.39 C 64.8413 363.755 71.7152 366.29 77.8578 366.631 82.0991 365.997 84.5854 364.632 87.6567 361.512 83.5616 358.587 79.174 356.686 75.3714 352.737 71.9101 349.422 69.9113 346.107 67.1813 342.792 70.8864 345.522 73.8602 348.837 78.2965 350.982 81.2216 352.688 84.5854 354.687 87.8029 354.492 90.0943 353.468 91.8005 352.152 91.0205 349.373 L 78.2965 338.112 C 83.1716 340.062 88.0467 344.206 92.9218 343.962 95.3106 343.328 97.2606 342.256 98.7719 339.867 100.039 337.332 100.868 334.797 101.112 331.969 L 105.207 341.037 90.728 373.944 80.4903 374.967 65.4263 367.362 58.9912 362.39 Z"/>
      <path id="shape32" fill-rule="evenodd" fill="rgb(125,116,111)" d="M 307.846 503.279 L 324.878 533.514 326.909 546.952 312.378 563.827 296.909 554.452 C 306.857 557.629 311.336 557.681 317.221 551.952 322.169 546.275 315.399 524.816 299.565 501.17 L 307.846 503.279 Z"/>
      <path id="shape33" fill-rule="evenodd" fill="black" d="M 261.539 427.181 C 276.824 432.697 290.061 437.627 301.251 443.728 313.243 450.346 320.555 454.917 330.207 463.584 343.127 474.84 350.489 487.852 356.097 500.571 361.144 520.978 364.437 540.216 368.022 560.623 368.849 552.626 369.677 546.676 369.919 537.216 369.727 524.288 368.072 511.36 364.955 498.432 362.267 489.264 356.654 480.389 350.748 472.684 345.595 464.932 339.564 458.935 331.779 452.06 320.55 444.009 310.491 437.714 295.459 430.248 287.445 426.579 279.723 424.373 272.294 423.044 L 261.539 427.181 Z"/>
      <path id="shape34" fill-rule="evenodd" fill="black" d="M 370.4 516.081 L 374.788 527.782 377.128 545.917 C 377.42 540.164 378.59 534.412 378.005 528.659 376.445 522.907 374.592 517.154 371.57 511.401 L 370.4 516.081 Z"/>
      <path id="shape35" fill-rule="evenodd" fill="black" d="M 364.955 378.368 C 364.955 379.609 377.365 387.055 377.365 387.055 L 389.775 389.951 401.358 392.019 401.358 394.088 395.153 400.293 391.016 407.325 391.016 411.462 401.358 404.429 400.944 408.566 393.084 415.598 393.084 416.839 404.253 410.634 399.289 418.08 395.153 421.803 395.98 428.422 398.048 434.213 392.671 433.386 392.671 441.659 397.221 444.555 391.843 446.623 394.739 449.932 393.912 454.896 390.602 456.137 390.602 459.033 387.707 459.033 385.638 462.342 386.466 456.137 387.707 445.796 386.466 438.763 386.466 433.386 391.843 428.422 389.775 418.908 383.57 414.771 377.365 413.944 382.329 410.634 387.707 412.703 389.775 404.429 396.807 395.329 395.98 393.26 385.638 392.019 375.297 389.951 368.264 385.814 362.887 379.609 364.955 378.368 Z"/>
      <path id="shape36" fill-rule="evenodd" fill="black" d="M 159.777 429.663 C 159.777 429.663 176.738 406.084 177.979 406.084 182.976 406.526 192.996 407.212 200.73 408.98 208.505 411.128 216.501 414.38 228.474 421.39 231.066 423.016 235.204 425.526 237.133 427.595 244.86 433.499 246.399 435.868 250.37 440.004 L 250.37 444.141 232.996 452.414 211.485 468.134 205.28 474.339 202.799 474.339 208.176 463.997 C 208.176 463.997 204.039 463.583 204.039 464.824 204.039 466.065 195.766 479.303 195.766 479.303 L 188.734 480.544 186.666 477.648 204.867 454.896 212.313 454.896 211.072 461.101 223.482 452.828 237.133 445.382 C 233.604 439.149 229.413 433.8 223.895 428.008 217.993 423.014 214.3 421.114 208.176 417.667 205.834 416.15 201.945 414.633 197.393 413.116 191.435 412.399 187.908 411.902 181.288 412.289 L 173.015 424.699 161.846 432.972 159.777 429.663 Z"/>
      <path id="shape37" fill-rule="evenodd" fill="black" d="M 218.931 394.088 L 236.719 392.847 249.129 390.778 273.949 390.778 289.254 387.469 253.266 384.573 234.651 385.401 218.931 394.088 Z"/>
      <path id="shape38" fill-rule="evenodd" fill="black" d="M 136.199 389.124 L 125.03 395.329 110.551 399.465 111.379 411.875 C 106.966 416.288 102.554 421.638 98.1414 426.05 93.6555 432.669 89.4821 438.35 87.1838 444.968 85.5569 451.449 84.2424 457.93 84.4905 464.411 L 96.9004 476.821 98.9687 478.062 97.7277 458.619 101.037 438.763 C 101.037 438.763 103.933 440.418 103.933 441.659 103.933 442.9 105.174 459.447 105.174 459.447 L 107.242 478.062 120.479 488.403 129.994 493.367 150.677 492.54 129.166 499.572 119.652 496.677 101.037 488.403 79.1128 471.029 76.2172 461.515 C 77.6238 454.621 80.2804 447.726 83.2495 440.832 85.4834 435.316 89.9048 430.738 93.7013 425.223 97.2129 421.362 100.412 416.563 105.174 412.703 L 103.105 403.602 94.8321 392.433 82.4221 392.433 78.2855 392.433 76.2172 381.678 67.1166 375.886 72.0805 373.404 82.4221 382.919 90.6954 382.919 98.1414 387.055 109.31 394.088 136.199 389.124 Z"/>
      <path id="shape39" fill-rule="evenodd" fill="black" d="M 121.72 344.862 C 121.72 346.516 124.616 356.031 124.616 356.031 L 128.753 352.721 128.753 342.38 124.616 338.657 121.72 344.862 Z"/>
      <path id="shape40" fill-rule="evenodd" fill="black" d="M 115.102 497.504 L 114.688 539.698 C 114.688 539.698 126.271 578.582 126.271 579.823 126.271 581.064 142.817 607.952 142.817 607.952 L 157.295 621.19 203.626 624.499 242.924 619.121 262.78 608.78 291.736 581.064 306.215 568.764 C 310.416 565.523 316.213 562.688 322.469 557.485 325.139 554.339 326.639 551.046 327.846 546.73 L 326.071 528.115 315.729 510.741 C 311.198 504.14 307.44 499.859 300.699 495.467 296.075 493.543 292.224 492.614 287.6 492.126 286.874 495.086 286.258 498.488 286.084 502 285.447 508.398 286.579 514.906 287.268 521.525 L 294.201 558.917 C 295.396 565.861 290.828 570.059 288.155 575.519 L 297.941 554.176 297.114 545.903 290.909 522.324 C 289.612 516.532 289.529 511.292 289.668 506.604 289.805 504.26 290.494 501.364 291.736 499.572 294.026 499.792 296.094 500.123 297.941 501.227 301.611 503.102 302.851 504.534 304.974 507.845 L 314.488 523.978 318.625 531.424 321.934 532.665 324.537 540.742 C 324.855 543.663 325.026 546.73 323.589 549.212 321.658 552.245 320.751 554.548 316.481 556.996 313.473 558.313 309.879 558.751 306.432 558.02 L 297.941 554.176 288.155 575.568 279.326 588.096 271.053 597.611 258.688 608.541 242.924 616.428 206.935 621.19 159.364 618.294 145.713 603.816 132.476 579.823 121.307 551.28 116.756 534.32 117.17 509.914 115.929 494.195 115.102 497.504 115.102 497.504 115.102 497.504 Z"/>
      <path id="shape41" fill-rule="evenodd" fill="black" d="M 81.9901 472.498 C 80.8201 472.498 74.97 487.123 74.97 487.123 L 76.14 492.973 73.215 504.673 76.14 517.544 79.0651 515.204 81.9901 508.769 84.9152 516.374 83.7451 523.394 86.0852 525.149 90.7653 518.129 106.56 532.169 115.336 540.944 115.336 521.054 103.635 518.129 89.5952 503.503 83.7451 494.728 83.7451 480.103 86.0852 475.423 81.9901 472.498 Z"/>
      <path id="shape42" fill-rule="evenodd" fill="black" d="M 139.321 501.748 L 153.361 503.503 156.286 500.578 159.796 516.374 162.722 535.679 168.572 549.719 159.796 533.924 153.946 512.279 148.096 507.599 139.321 501.748 Z"/>
      <path id="shape43" fill-rule="evenodd" fill="black" d="M 165.062 506.429 L 165.062 517.544 166.817 529.244 162.136 516.374 165.062 506.429 Z"/>
      <path id="shape44" fill-rule="evenodd" fill="black" d="M 116.233 543.985 C 114.946 551.786 113.814 559.742 114.089 567.855 115.023 575.07 116.894 582.754 120.797 589.5 125.553 596.716 131.247 602.37 137.566 608.805 L 140.491 601.785 C 135.81 597.613 131.91 593.753 128.635 588.642 124.42 582.324 122.548 577.255 121.302 571.092 119.936 565.242 120.601 559.079 120.016 553.229 L 116.233 543.985 Z"/>
      <path id="shape45" fill-rule="evenodd" fill="black" d="M 139.321 602.128 C 132.915 611.569 131.051 625.743 131.585 630.451 131.943 634.587 141.153 644.881 150.436 652.096 155.707 655.335 160.196 656.699 166.716 658.063 181.059 657.986 200.714 656.972 217.712 655.021 L 259.248 649.171 285.574 630.451 311.314 608.22 341.15 576.437 341.15 565.987 320.674 590.67 286.744 624.601 262.203 643.321 252.813 648.001 205.356 652.711 C 189.778 653.575 171.076 653.5 160.966 650.926 146.091 643.806 137.494 633.873 135.524 628.691 134.85 624.178 136.824 612.008 141.481 603.23 L 140.148 601.301 139.321 602.128 139.321 602.128 Z"/>
      <path id="shape46" fill-rule="evenodd" fill="black" d="M 177.347 656.776 L 186.122 668.476 196.067 704.747 198.992 709.427 225.318 703.577 252.813 696.557 276.799 693.632 283.819 695.972 280.894 691.877 287.914 690.707 298.444 695.972 302.539 695.972 304.294 688.952 307.219 694.802 313.069 690.707 314.239 680.177 318.919 674.326 318.919 678.422 321.844 677.252 321.844 671.401 329.449 665.551 331.789 659.701 345.245 638.056 361.04 623.431 377.42 604.125 393.216 586.575 408.426 574.875 423.051 570.78 411.351 569.025 413.691 567.855 424.221 567.855 430.071 567.855 418.371 563.175 425.391 557.324 434.751 562.005 437.091 564.345 434.166 556.154 428.901 551.474 432.996 542.699 434.166 538.604 441.771 548.549 441.771 541.529 434.751 535.679 438.846 533.924 445.867 536.849 448.792 532.754 444.697 528.074 437.676 521.054 437.676 508.769 442.941 495.898 447.622 498.823 453.472 492.973 444.697 492.973 441.771 484.198 450.547 481.273 438.846 470.743 431.826 454.948 428.901 432.132 428.901 409.902 432.996 416.922 437.091 430.377 441.771 437.397 438.846 418.677 438.846 402.882 434.166 391.181 427.146 379.481 426.704 364.037 407.841 364.271 418.371 374.801 425.391 389.426 435.921 404.052 437.091 415.752 428.901 401.127 424.221 411.072 425.976 425.697 424.221 437.397 427.146 460.798 434.751 474.253 434.751 483.028 437.091 488.878 431.241 500.578 432.996 518.129 432.996 525.734 430.071 531.584 428.901 535.679 422.466 539.774 424.221 552.059 421.296 556.154 415.446 562.005 C 415.446 562.005 413.106 563.76 414.276 563.76 415.446 563.76 406.671 567.855 406.671 567.855 L 408.426 569.025 400.821 573.705 400.821 575.46 384.44 586.575 359.87 613.485 340.565 635.131 324.769 661.456 311.899 673.742 308.974 677.837 291.424 681.932 299.614 684.857 301.369 685.442 298.444 687.782 285.574 688.367 282.064 689.537 265.098 690.707 249.888 692.462 232.923 698.312 219.468 698.312 213.617 698.312 200.747 694.217 191.972 674.912 203.087 683.687 210.692 689.537 200.747 673.742 194.897 666.136 183.197 657.361 177.347 656.776 Z"/>
      <path id="shape47" fill-rule="evenodd" fill="black" d="M 127.036 277.689 L 133.471 280.615 149.266 274.764 163.892 260.139 178.517 248.439 172.667 248.439 151.021 264.234 140.491 273.594 128.791 274.764 127.036 277.689 Z"/>
      <path id="shape48" fill-rule="evenodd" fill="black" d="M 102.465 242.589 L 112.411 244.344 129.961 240.834 128.791 238.494 112.996 239.664 102.465 242.589 Z"/>
      <path id="shape49" fill-rule="evenodd" fill="black" d="M 83.7451 189.938 L 80.8201 211.583 79.0651 223.284 80.8201 248.439 82.5751 265.989 92.5203 270.084 92.5203 274.764 82.5751 271.839 79.6501 283.54 76.725 296.41 69.1199 299.92 67.9499 294.07 70.8749 289.39 74.97 271.839 76.14 268.914 73.8 258.969 76.725 242.589 73.215 227.964 74.97 196.958 74.97 187.013 83.7451 189.938 Z"/>
      <path id="shape50" fill-rule="evenodd" fill="black" d="M 103.05 276.519 L 110.071 276.519 107.146 270.669 98.3704 271.839 98.3704 274.764 95.4454 278.859 99.5404 283.54 110.071 283.54 108.901 279.444 103.05 276.519 Z"/>
      <path id="shape51" fill-rule="evenodd" fill="black" d="M 192.557 385.916 L 200.162 391.766 201.332 388.841 215.957 385.916 226.488 382.991 241.113 380.066 255.738 375.386 242.868 376.556 252.813 368.366 266.268 359.006 273.288 349.061 295.519 347.891 289.084 344.381 249.888 342.041 225.318 347.306 204.257 357.836 211.862 354.911 203.087 361.931 194.312 372.461 188.462 379.481 179.687 381.236 186.707 384.161 193.142 380.066 204.257 366.611 213.617 354.911 227.658 351.986 252.228 350.231 268.608 349.061 236.433 346.721 255.738 346.136 272.118 347.306 263.343 356.081 251.643 366.611 235.263 378.311 220.638 378.311 208.937 384.161 200.162 382.991 192.557 385.916 Z"/>
      <path id="shape52" fill-rule="evenodd" fill="black" d="M 207.956 365.938 C 210.723 367.189 211.625 368.56 212.564 371.291 213.589 375.439 213.19 379.873 211.862 382.991 L 221.808 380.223 C 221.418 376.322 221.028 372.422 219.856 368.522 219 365.714 217.206 363.373 214.787 361.502 213.227 360.527 211.326 359.987 209.61 359.637 L 204.807 365.773 C 205.93 365.478 207.109 365.515 207.956 365.938 Z"/>
      <path id="shape53" fill-rule="evenodd" fill="black" d="M 197.237 375.386 L 201.332 376.556 C 201.136 378.116 202.19 379.676 203.087 381.236 L 200.162 382.991 C 198.406 380.769 197.431 377.921 197.237 375.386 Z"/>
      <path id="shape54" fill-rule="evenodd" fill="black" d="M 327.109 485.368 L 343.49 502.918 348.17 524.564 349.34 559.664 C 349.34 559.664 344.075 593.595 342.32 594.765 340.565 595.935 340.565 564.345 340.565 564.345 L 341.735 538.019 338.81 539.189 327.694 518.714 320.089 502.918 327.109 504.088 338.81 525.734 C 338.81 525.734 341.735 529.244 341.735 530.414 341.735 531.584 341.735 518.714 341.735 518.714 L 335.885 498.238 327.109 485.368 Z"/>
      <path id="shape55" fill-rule="evenodd" fill="black" d="M 229.998 342.626 L 266.268 329.17 306.049 326.245 317.749 326.245 311.899 317.47 321.844 313.375 329.449 307.525 323.599 302.845 314.824 299.92 301.954 291.145 282.649 295.24 283.819 298.75 303.124 295.24 311.899 299.92 321.844 304.015 327.694 306.94 321.844 310.45 301.954 315.715 C 301.954 315.715 289.669 320.395 288.499 320.395 287.329 320.395 265.098 321.565 265.098 321.565 L 234.678 337.946 206.597 355.496 194.897 365.441 180.272 374.216 183.197 367.196 187.292 358.421 206.597 337.946 187.877 352.571 179.102 364.271 176.177 374.801 183.197 374.801 193.142 368.951 212.447 352.571 229.998 342.626 Z"/>
      <path id="shape56" fill-rule="evenodd" fill="black" d="M 275.044 291.73 L 288.499 282.955 292.594 274.179 276.799 279.444 262.173 288.22 266.268 291.145 279.724 280.03 285.574 278.274 281.479 282.37 270.948 291.145 275.044 291.73 Z"/>
      <path id="shape57" fill-rule="evenodd" fill="black" d="M 282.051 275.076 L 275.031 270.981 266.256 270.396 272.106 265.131 257.48 264.546 253.385 267.471 261.576 268.056 263.331 270.396 267.426 273.321 273.276 272.151 282.051 275.076 Z"/>
      <path id="shape58" fill-rule="evenodd" fill="black" d="M 235.848 286.465 L 210.107 304.6 192.557 316.885 177.347 330.34 168.572 346.721 169.742 358.421 165.647 354.326 C 165.647 354.326 162.722 354.911 162.722 356.666 162.722 358.421 165.647 370.121 165.647 370.121 L 170.327 374.216 175.592 373.046 173.252 374.216 164.477 373.046 159.796 363.101 161.551 346.721 161.551 342.626 171.497 333.85 174.422 327.415 184.952 317.47 197.822 307.525 213.617 295.825 221.223 291.145 231.168 285.295 225.903 282.37 184.952 315.715 182.027 314.545 198.992 301.675 224.148 279.444 235.848 286.465 Z"/>
      <path id="shape59" fill-rule="evenodd" fill="black" d="M 94.2753 367.196 L 105.975 342.626 110.071 341.456 104.805 333.85 100.125 329.755 103.05 337.946 93.1053 363.101 94.2753 367.196 Z"/>
      <path id="shape60" fill-rule="evenodd" fill="black" d="M 98.9554 326.245 L 88.814 319.418 82.5751 309.28 69.6249 305.963 55.0796 289.975 59.1747 301.675 47.4745 297.58 50.3995 305.77 51.5696 317.47 50.3995 320.395 41.6244 313.375 47.4745 326.245 48.6445 332.68 43.3794 332.68 47.4745 343.796 41.6244 348.476 31.6792 352.571 42.7944 354.326 47.4745 358.421 31.6792 364.271 42.7944 368.951 54.4946 366.026 70.8749 370.706 74.97 368.951 67.9499 367.196 59.1747 361.931 47.4745 364.271 43.3794 363.101 49.2295 360.176 53.3246 361.346 53.3246 359.006 42.7944 350.231 50.3995 347.306 53.3246 347.306 59.1747 351.401 53.3246 342.626 52.1546 333.85 53.3246 333.85 65.0248 336.775 62.0998 332.68 58.0047 330.925 50.3995 330.925 51.5696 326.83 56.2497 328 50.3995 320.98 54.4946 319.225 58.0047 323.905 56.2497 318.055 62.0998 320.395 55.0796 312.205 55.0796 304.6 62.0998 307.525 65.0248 310.45 67.9499 307.525 76.1 309.592 82.5751 313.375 85.5002 320.395 98.9554 326.245 Z"/>
      <path id="shape61" fill-rule="evenodd" fill="black" d="M 78.48 374.801 L 84.3301 377.141 92.5203 373.046 78.48 374.801 Z"/>
      <path id="shape62" fill-rule="evenodd" fill="black" d="M 383.855 279.444 L 417.786 244.344 448.207 205.148 452.302 208.073 452.302 223.868 455.812 233.229 462.832 235.569 459.907 241.419 459.907 246.099 475.702 250.194 474.532 254.874 480.382 257.799 481.552 258.969 468.682 291.73 459.907 311.62 466.634 337.946 C 467.024 344.966 468.292 351.986 468.682 359.006 467.902 363.783 466.537 366.221 464.587 368.951 460.687 372.754 456.787 374.216 451.132 374.801 445.282 374.704 439.431 370.511 433.581 367.781 L 424.806 364.856 416.031 364.856 432.411 359.006 440.894 364.856 C 444.209 367.391 447.524 369.341 451.717 370.999 454.837 370.609 457.372 370.219 459.907 368.366 462.929 364.466 463.904 361.736 464.587 357.251 L 461.077 341.456 458.152 323.905 454.057 312.205 464.002 294.655 471.607 276.519 474.532 266.574 476.287 260.724 471.607 259.554 468.682 257.799 468.682 253.704 462.832 250.779 458.152 249.024 454.057 246.099 456.982 240.249 455.812 237.324 449.962 234.399 448.207 225.624 446.452 218.018 442.356 220.943 433.581 231.474 416.031 251.949 397.311 272.424 389.706 282.37 379.76 289.975 379.76 281.2 383.855 279.444 Z"/>
      <path id="shape63" fill-rule="evenodd" fill="black" d="M 459.907 261.894 L 459.907 282.37 451.132 308.695 447.037 320.395 447.037 329.17 439.431 332.095 440.602 326.245 443.526 314.545 451.132 294.07 455.812 279.444 459.907 261.894 Z"/>
      <path id="shape64" fill-rule="evenodd" fill="black" d="M 441.186 247.269 L 441.186 254.289 429.486 265.989 409.011 310.45 406.086 312.79 413.106 312.79 418.956 329.17 421.881 333.265 430.656 335.021 436.506 340.871 430.656 344.966 421.881 337.946 414.861 330.925 407.256 314.545 403.161 313.375 404.331 310.45 C 404.331 310.45 398.481 310.45 398.481 311.62 398.481 312.79 405.501 301.675 405.501 301.675 L 418.956 273.594 431.826 257.214 441.186 247.269 Z"/>
      <path id="shape65" fill-rule="evenodd" fill="black" d="M 421.881 298.165 L 430.656 306.94 435.336 311.62 436.506 307.525 437.676 305.77 431.826 296.995 421.881 291.145 424.806 296.995 421.881 298.165 Z"/>
      <path id="shape66" fill-rule="evenodd" fill="black" d="M 467.512 345.551 L 474.532 351.401 478.042 377.726 480.967 357.251 476.287 342.626 485.062 363.101 490.912 371.876 495.007 384.746 486.817 350.231 496.762 364.271 505.538 386.501 510.218 405.807 504.368 436.227 524.258 478.348 530.108 477.178 527.768 467.233 534.788 478.348 C 534.788 478.348 534.203 488.878 535.958 488.878 537.713 488.878 541.808 480.103 541.808 480.103 L 556.434 453.778 566.964 445.002 562.284 417.507 559.944 394.107 551.169 377.726 546.488 351.401 546.488 329.755 C 546.488 329.755 538.298 333.85 539.468 333.85 540.638 333.85 542.393 361.346 542.393 361.346 L 546.488 380.651 554.094 392.352 558.189 428.622 559.359 446.172 552.339 456.703 545.318 466.648 545.318 453.778 549.413 433.302 544.733 436.227 541.808 453.778 542.393 466.648 538.883 476.008 527.768 461.383 523.088 463.723 517.238 449.098 508.463 437.982 513.143 417.507 508.463 387.671 505.538 373.631 490.912 347.306 482.137 332.68 473.362 328 485.062 343.796 486.817 357.251 473.362 338.531 472.192 343.796 467.512 345.551 Z"/>
      <path id="shape67" fill-rule="evenodd" fill="black" d="M 562.869 452.023 L 577.494 475.423 588.609 498.823 586.269 516.959 581.589 535.679 C 581.589 535.679 589.194 527.489 589.194 528.659 589.194 529.829 590.364 545.624 590.364 545.624 L 600.894 567.855 603.819 571.95 607.915 557.909 623.71 550.304 640.09 525.734 637.165 505.259 643.015 507.599 630.145 474.253 619.615 449.098 613.765 427.452 616.69 421.602 607.915 427.452 604.989 409.902 600.894 374.801 590.364 333.85 586.269 309.28 566.964 300.505 542.393 262.479 526.013 231.474 516.068 198.128 511.388 177.653 511.388 144.307 515.483 139.627 490.912 104.526 489.742 110.376 495.007 125.002 506.022 136.761 505.437 173.031 510.218 193.59 514.313 205.148 521.333 221.528 528.938 252.534 535.958 266.574 547.658 287.635 555.263 310.45 566.964 316.3 573.984 332.68 576.909 361.931 590.364 397.032 578.664 353.156 575.739 332.68 571.644 320.98 576.909 322.15 566.964 313.96 557.019 300.505 568.134 307.525 582.759 313.96 590.364 347.306 599.139 382.406 602.064 416.922 606.744 430.377 613.765 445.002 621.37 471.328 626.635 490.048 629.56 513.449 631.315 496.483 634.24 504.673 631.315 525.149 624.295 541.529 614.935 552.059 604.989 557.324 604.989 564.93 593.289 544.454 591.534 528.074 589.194 525.734 586.269 526.904 592.119 504.673 590.364 495.898 584.514 483.028 580.419 464.308 571.059 449.683 575.739 462.553 562.869 452.023 Z"/>
      <path id="shape68" fill-rule="evenodd" fill="black" d="M 448.792 108.036 L 464.587 123.832 477.457 150.157 464.587 131.437 471.607 154.252 473.805 164.499 485.062 175.969 480.069 175.342 475.117 172.388 477.457 185.258 485.062 198.128 492.667 208.658 500.858 215.678 492.667 214.508 489.157 212.753 505.538 233.229 499.688 229.134 483.892 214.508 489.157 229.134 497.932 244.929 508.463 258.384 492.667 243.759 C 492.667 243.759 499.102 261.309 500.858 261.309 502.613 261.309 517.238 277.104 517.238 277.104 L 533.033 287.635 534.788 291.73 514.313 278.859 530.108 294.655 538.883 300.505 526.013 295.24 541.808 316.885 546.488 319.81 521.918 299.335 513.143 286.465 500.858 275.934 503.783 268.914 495.592 264.234 495.592 258.384 486.817 236.739 476.287 217.433 467.512 198.713 467.512 192.863 480.967 214.508 480.967 201.638 469.267 182.333 466.342 164.782 458.737 141.382 457.567 126.757 448.792 108.036 Z"/>
      <path id="shape69" fill-rule="evenodd" fill="black" d="M 299.614 139.042 L 311.899 143.137 320.089 141.967 354.02 166.537 342.32 163.612 317.749 146.062 C 317.749 146.062 333.545 160.687 333.545 162.442 338.225 170.047 354.02 179.993 354.02 179.993 L 359.87 184.673 351.095 184.673 363.965 201.638 367.475 209.243 343.49 188.183 356.945 209.243 369.815 218.018 376.25 220.943 362.795 218.018 368.645 226.794 385.025 243.174 394.971 251.364 390.291 260.139 380.345 273.594 381.515 289.39 379.175 321.565 380.345 343.796 386.195 365.441 373.325 345.551 375.665 355.496 386.195 373.046 370.4 357.251 354.02 342.626 356.945 337.946 351.095 333.85 348.17 339.116 342.32 329.17 345.245 320.395 342.32 305.77 340.565 299.92 342.32 272.424 323.014 247.269 320.089 244.344 320.089 247.269 305.464 234.399 297.274 228.549 297.274 233.814 291.424 225.624 288.499 212.168 282.064 198.713 275.044 187.598 270.948 188.768 268.023 179.993 262.173 172.973 C 262.173 172.973 260.418 173.558 260.418 175.313 260.418 177.068 253.398 172.973 253.398 172.973 L 250.473 165.367 244.623 156.592 244.623 149.572 257.493 166.537 269.193 172.388 273.874 181.163 280.894 188.768 283.819 192.863 286.744 188.768 291.424 205.148 293.764 216.263 303.709 223.283 318.919 238.494 333.545 251.364 342.32 264.819 346.415 278.274 347 289.975 347 294.07 349.34 282.37 349.34 273.594 351.095 286.465 349.925 304.015 349.925 320.395 C 349.925 320.395 352.85 324.49 354.02 324.49 355.19 324.49 356.945 322.15 356.945 322.15 L 369.815 336.19 374.495 339.116 375.665 325.075 371.57 326.245 377.42 294.07 377.42 279.444 380.345 267.744 387.365 257.799 390.876 253.119 380.345 243.174 383.27 249.024 387.365 251.364 372.74 239.664 364.55 231.474 349.925 222.113 333.545 210.413 327.694 203.393 341.15 213.338 359.87 223.868 363.965 225.039 355.775 212.168 343.49 194.618 334.715 178.238 351.095 189.938 344.075 179.993 333.545 170.048 321.844 157.762 324.769 157.762 310.144 147.817 299.614 139.042 Z"/>
      <path id="shape70" fill-rule="evenodd" fill="black" d="M 127.621 200.468 L 137.566 179.993 149.266 174.143 167.987 170.048 177.347 170.048 170.327 174.143 155.701 178.238 172.667 175.898 186.122 172.973 194.897 172.973 204.842 179.993 210.692 192.863 210.692 210.413 207.767 222.113 205.427 236.739 205.427 250.194 206.597 235.569 208.352 244.344 C 208.352 244.344 208.352 255.459 208.352 257.214 208.352 258.969 210.692 270.669 210.692 270.669 L 210.692 260.724 218.297 274.764 231.168 285.295 C 231.168 285.295 238.188 287.635 239.943 289.39 241.698 291.145 251.643 296.995 251.643 296.995 L 253.398 294.07 250.473 285.295 253.398 282.37 C 253.398 282.37 257.493 286.465 257.493 285.295 257.493 284.125 253.398 274.764 253.398 273.594 253.398 272.424 250.473 267.744 250.473 267.744 L 247.548 263.064 254.568 257.799 260.418 251.949 265.098 248.439 C 265.098 248.439 273.288 248.439 272.118 248.439 270.948 248.439 262.173 241.419 262.173 241.419 L 253.398 231.474 258.078 218.018 260.418 212.168 265.098 206.318 268.023 200.468 265.098 193.448 C 265.098 193.448 263.928 187.598 265.098 187.598 266.268 187.598 273.874 197.543 273.874 197.543 L 270.948 190.523 262.173 179.993 258.078 175.898 252.228 170.048 244.623 155.422 244.623 146.647 240.528 129.097 237.603 124.417 240.528 136.117 242.868 150.742 242.868 155.422 237.603 143.722 227.073 129.097 235.848 144.892 242.868 157.762 251.643 171.218 250.473 182.918 254.568 177.068 260.418 182.918 262.173 193.448 258.078 200.468 263.343 200.468 261.003 207.488 251.643 220.943 243.453 238.494 241.698 250.194 244.623 260.139 245.793 250.194 250.473 232.644 C 250.473 232.644 254.568 237.324 254.568 238.494 254.568 239.664 254.568 245.514 254.568 245.514 L 253.398 253.119 246.378 261.894 244.623 276.519 235.848 275.349 231.753 266.574 227.073 258.969 224.148 246.099 224.148 256.044 229.998 264.819 231.168 273.594 222.978 273.594 217.127 264.819 211.277 251.949 209.522 237.324 214.918 219.773 219.013 204.563 218.285 189.652 208.638 170.048 C 208.638 170.048 196.746 160.687 195.183 159.517 193.621 158.347 183.197 154.837 183.197 154.837 L 168.572 153.667 155.701 154.837 142.246 163.612 137.566 169.463 149.851 161.272 159.796 156.592 C 159.796 156.592 167.987 156.592 169.742 156.592 171.497 156.592 178.517 159.517 177.347 159.517 176.177 159.517 161.551 162.442 161.551 162.442 L 148.096 166.537 138.151 169.463 132.301 177.068 129.376 187.013 127.621 200.468 Z"/>
      <path id="shape71" fill-rule="evenodd" fill="black" d="M 476.916 318.546 L 493.845 332.34 503.25 351.15 512.655 376.23 523.94 415.104 520.805 396.294 511.401 366.825 500.742 340.491 488.202 322.935 476.916 318.546 Z"/>
      <path id="shape72" fill-rule="evenodd" fill="black" d="M 119.526 197.535 L 108.867 188.13 98.8355 179.979 100.716 189.384 91.3115 181.86 94.4465 186.249 90.0575 186.249 86.9225 189.384 81.9065 189.384 76.8905 188.13 70.6205 188.13 61.8426 180.606 76.8905 183.741 78.7715 179.352 50.5566 166.185 66.2315 170.574 80.0255 176.844 88.1765 178.725 85.0415 169.32 72.5015 161.796 57.4536 156.78 C 57.4536 156.78 52.4376 152.391 53.6916 152.391 54.9456 152.391 66.2315 154.899 66.2315 154.899 L 75.6365 156.78 86.2955 163.05 94.4465 164.304 95.7005 173.709 100.716 169.32 106.986 176.844 111.375 176.844 115.137 178.725 120.78 183.741 118.272 186.249 113.256 184.995 113.256 188.13 128.931 198.162 119.526 197.535 Z"/>
      <path id="shape73" fill-rule="evenodd" fill="black" d="M 22.3416 172.455 C 22.3416 172.455 17.3256 187.503 17.3256 188.757 17.3256 190.011 6.66667 206.94 6.66667 206.94 L 6.66667 216.345 12.9366 211.956 17.9526 219.48 28.6116 232.02 41.1516 246.441 53.6916 260.235 59.9616 275.91 58.7076 290.331 63.0966 274.656 67.4855 285.315 66.2315 268.386 51.8106 249.576 38.6436 235.155 25.4766 221.361 12.9366 207.567 21.0876 196.281 23.5956 180.606 22.3416 172.455 Z"/>
      <path id="shape74" fill-rule="evenodd" fill="black" d="M 61.8426 246.441 L 46.1676 230.139 36.7626 213.21 36.7626 223.869 31.7466 208.821 28.6116 186.876 28.6116 172.455 28.6116 171.201 33.0006 155.526 27.3576 159.915 22.3416 173.709 24.2226 191.265 25.4766 196.281 27.3576 205.059 34.8816 225.75 41.1516 232.02 50.5566 248.949 46.1676 235.155 61.8426 246.441 Z"/>
      <path id="shape75" fill-rule="evenodd" fill="black" d="M 24.2226 161.796 L 20.4606 148.002 25.4766 138.597 38.0166 127.311 54.9456 114.771 72.5015 111.636 88.1765 110.382 91.3115 105.366 80.6525 106.62 69.3665 100.977 75.6365 108.501 67.4855 108.501 56.8266 106.62 49.3026 100.35 48.6756 103.485 56.8266 108.501 64.3506 110.382 55.5726 111.636 46.1676 112.89 43.0326 108.501 41.1516 108.501 42.4056 113.517 48.6756 114.771 45.5406 117.906 38.0166 119.787 29.8656 116.652 27.3576 114.771 27.3576 117.906 33.0006 122.295 38.0166 122.922 30.4926 128.565 23.5956 137.97 16.0716 144.24 20.4606 144.24 19.2066 150.51 19.2066 153.645 11.6827 146.121 16.0716 155.526 23.5956 166.185 24.2226 161.796 Z"/>
      <path id="shape76" fill-rule="evenodd" fill="black" d="M 134.78 139.909 L 126.356 147.446 124.139 157.199 124.139 162.963 128.573 162.076 129.46 168.283 130.346 174.934 126.356 166.067 125.026 177.15 122.809 181.584 122.809 171.83 122.809 164.293 119.706 170.5 119.706 178.481 113.942 170.944 104.189 157.199 93.1047 140.795 96.2082 136.362 98.4249 128.825 102.858 114.194 100.642 107.544 108.179 105.327 109.509 103.11 109.952 109.317 127.243 103.11 132.563 97.7899 138.327 103.11 151.628 102.223 152.514 96.4599 163.598 99.5634 187.983 96.4599 178.229 96.4599 175.125 92.0263 184.879 92.9131 199.066 89.8096 198.18 87.5928 211.48 89.8096 226.111 87.5928 243.402 89.8096 232.761 92.9131 223.451 90.6963 206.16 92.0263 200.397 92.0263 187.096 98.6767 175.125 101.78 158.278 102.223 149.411 105.327 C 149.411 105.327 143.647 105.327 142.76 105.327 141.874 105.327 132.563 103.997 132.563 103.997 L 125.026 108.43 116.159 111.977 108.622 113.307 106.405 120.844 100.642 135.475 98.8683 141.239 108.622 156.313 116.159 168.283 120.593 164.293 120.593 154.983 125.913 145.229 134.78 139.909 Z"/>
      <path id="shape77" fill-rule="evenodd" fill="black" d="M 88.6711 103.554 L 103.066 84.1054 102.12 91.583 113.115 83.9292 124.347 79.2581 136.169 69.0906 144.977 59.2181 142.76 64.9817 141.046 69.4745 146.367 65.0411 155.174 62.9134 170.072 59.3962 182.514 56.2036 178.732 60.5481 194.694 58.3314 210.77 57.0904 220.407 54.4599 229.215 56.1146 232.672 49.6126 247.273 42.9624 265.57 25.0798 263.796 28.1832 260.249 33.9469 270.003 26.4692 286.851 12.6658 297.786 8.4698 307.688 6.66667 323.206 7.34554 325.423 8.2323 323.649 9.56233 305.915 11.7791 310.732 13.1685 328.969 9.56233 351.137 10.449 358.674 14.8826 371.131 9.11617 377.739 10.8953 372.418 13.9958 383.502 13.9958 386.606 17.0993 404.34 25.0798 424.291 29.5133 436.261 34.8336 438.478 43.7007 451.278 55.0815 468.361 63.9487 471.049 70.9809 457.986 63.2068 457.335 65.3062 467.74 74.7355 476.607 86.2628 488.577 96.0166 495.522 105.651 490.646 109.848 473.149 89.2178 455.917 69.4152 450.568 61.3754 440.46 51.5327 432.479 44.055 429.316 36.8425 422.163 35.1284 402.333 35.0394 412.825 31.2274 409.365 29.8676 399.02 28.3297 383.502 21.7388 376.587 18.2809 365.178 18.1325 355.335 19.995 347.149 19.611 351.434 15.6505 348.537 14.6748 327.345 13.788 308.28 17.3942 293.944 16.2126 302.192 13.0795 302.546 11.7197 291.728 14.8826 285.964 18.4294 278.724 24.5749 266.84 35.5124 256.97 41.8659 247.392 52.4193 250.644 44.3202 243.107 50.5569 235.509 55.5524 231.313 62.4681 223.746 59.897 201.816 63.03 178.377 63.9465 161.973 67.0499 144.977 70.3019 139.214 75.1789 136.11 83.6026 134.78 85.8194 134.78 75.1789 129.46 81.3858 114.328 89.2177 105.075 93.7404 101.528 99.415 96.2082 98.2333 92.6613 106.214 86.011 109.317 88.6711 103.554 88.6711 103.554 Z"/>
      <path id="shape78" fill-rule="evenodd" fill="black" d="M 263.636 87.2689 L 268.608 81.4188 269.486 77.0312 270.948 81.4188 278.261 77.0312 286.724 69.0936 291.676 65.291 292.301 69.7186 298.151 70.3036 320.674 69.7186 C 320.674 69.7186 330.034 71.1811 334.422 69.7186 338.81 68.256 339.488 67.2357 345.693 65.1674 L 340.949 71.7661 352.348 71.1811 376.25 73.2286 392.063 73.4936 C 392.063 73.4936 392.63 76.8097 391.753 76.8097 390.875 76.8097 388.409 76.8893 385.046 77.2233 L 391.402 80.3406 397.311 83.1322 403.453 90.8082 408.173 95.944 415.446 104.819 419.541 115.642 425.099 127.635 428.024 132.607 C 428.024 132.607 423.051 128.512 423.051 127.635 423.051 126.757 419.541 122.369 419.541 122.369 L 420.126 128.22 417.201 125.294 415.96 119.444 411.572 107.159 406.378 101.017 401.113 95.459 385.61 82.8812 380.638 80.8338 373.325 77.0312 366.013 77.0312 347.877 75.5686 339.102 76.4462 328.572 74.8833 313.947 74.6911 298.151 73.5211 C 298.151 73.5211 294.349 73.5211 294.349 73.5211 L 288.246 75.8212 282.495 84.4564 281.924 78.5337 279.138 80.5413 273.288 84.3438 263.636 87.2689 263.636 87.2689 263.636 87.2689 263.636 87.2689 Z"/>
      <path id="shape79" fill-rule="evenodd" fill="black" d="M 327.592 546.739 C 328.253 538.578 329.742 536.35 335.782 533.154 L 326.792 514.498 C 327.377 523.371 326.272 529.254 321.299 527.303 L 327.15 548.949 327.15 548.949 327.15 548.949 327.592 546.739 Z"/>
      <path id="shape80" fill-rule="evenodd" fill="black" d="M 568.189 405.164 L 573.934 419.306 584.983 439.194 594.706 454.662 596.031 449.358 599.125 464.826 609.29 491.343 612.383 516.534 609.29 532.002 607.08 543.493 604.87 532.444 600.451 526.699 596.915 538.631 596.031 530.234 599.125 519.186 596.031 494.879 600.451 509.905 601.335 522.279 607.08 527.583 609.29 514.766 606.196 494.879 594.263 461.733 592.496 465.268 584.983 446.265 569.515 420.632 570.398 418.422 568.189 405.164 Z"/>
      <path id="shape81" fill-rule="evenodd" fill="black" d="M 338.997 640.718 L 352.747 671.969 343.372 703.844 342.122 692.594 348.997 671.344 335.247 648.843 338.997 640.718 Z"/>
      <path id="shape82" fill-rule="evenodd" fill="black" d="M 465.873 592.593 L 458.373 542.592 455.873 505.092 437.123 420.091 430.873 407.591 427.123 408.841 448.373 498.842 454.623 582.593 437.123 688.844 452.123 650.093 454.623 623.843 465.873 592.593 Z"/>
      <path id="shape83" fill-rule="evenodd" fill="black" d="M 563.375 463.841 L 532.124 520.092 507.124 586.343 485.962 685.094 502.427 635.093 510.874 590.093 544.624 505.092 565.875 476.342 563.375 463.841 Z"/>
    </g>
  </g>
</svg>
