<?xml version="1.0" standalone="no"?>
<svg
  xmlns:xlink="http://www.w3.org/1999/xlink"
  xmlns:dc="http://purl.org/dc/elements/1.1/"
  xmlns:cc="http://creativecommons.org/ns#"
  xmlns:rdf="http://www.w3.org/1999/02/22-rdf-syntax-ns#"
  xmlns:svg="http://www.w3.org/2000/svg"
  xmlns="http://www.w3.org/2000/svg"
  version="1.1"
  preserveAspectRatio="none"
  width="200" height="200"
  viewBox="0 0 200 200">
  <defs>
  </defs>
  <g transform="matrix(1,0,0,-1,0,200)"> <!-- invert y -->
    <g> <!-- scene-transformation -->
      <path id="shape0" fill-rule="nonzero" transform="scale(200)" fill="lightgrey" d="M 0 0 L 1 0 1 1 0 1 0 0 Z"/>
      <g transform="translate(50,50)">
        <g transform="scale(20)">
          <path id="shape1" fill-rule="nonzero" fill="red" d="M 0 0 L 1 0 1 1 0 1 0 0 Z"/>
          <g transform="translate(0,2)">
            <path id="shape2" fill-rule="nonzero" fill="green" d="M 0 0 L 1 0 1 1 0 1 0 0 Z"/>
            <g transform="translate(0,2)">
              <path id="shape3" fill-rule="nonzero" fill="blue" d="M 0 0 L 1 0 1 1 0 1 0 0 Z"/>
            </g>
          </g>
          <g transform="translate(2,0)">
            <path id="shape4" fill-rule="nonzero" fill="yellow" d="M 0 0 L 1 0 1 1 0 1 0 0 Z"/>
            <g transform="translate(0,2)">
              <path id="shape5" fill-rule="nonzero" fill="orange" d="M 0 0 L 1 0 1 1 0 1 0 0 Z"/>
              <g transform="translate(0,2)">
                <path id="shape6" fill-rule="nonzero" fill="purple" d="M 0 0 L 1 0 1 1 0 1 0 0 Z"/>
              </g>
            </g>
            <g transform="translate(2,0)">
              <path id="shape7" fill-rule="nonzero" fill="black" d="M 0 0 L 1 0 1 1 0 1 0 0 Z"/>
              <g transform="translate(0,2)">
                <path id="shape8" fill-rule="nonzero" fill="grey" d="M 0 0 L 1 0 1 1 0 1 0 0 Z"/>
                <g transform="translate(0,2)">
                  <path id="shape9" fill-rule="nonzero" fill="cyan" d="M 0 0 L 1 0 1 1 0 1 0 0 Z"/>
                </g>
              </g>
            </g>
          </g>
        </g>
      </g>
    </g>
  </g>
</svg>
