<?xml version="1.0" standalone="no"?>
<svg
  xmlns:xlink="http://www.w3.org/1999/xlink"
  xmlns:dc="http://purl.org/dc/elements/1.1/"
  xmlns:cc="http://creativecommons.org/ns#"
  xmlns:rdf="http://www.w3.org/1999/02/22-rdf-syntax-ns#"
  xmlns:svg="http://www.w3.org/2000/svg"
  xmlns="http://www.w3.org/2000/svg"
  version="1.1"
  preserveAspectRatio="none"
  width="150" height="50"
  viewBox="0 0 150 50">
  <defs>
  </defs>
  <g transform="matrix(1,0,0,-1,0,50)"> <!-- invert y -->
    <g> <!-- scene-transformation -->
      <path id="shape0" fill-rule="nonzero" fill="purple" d="M 25 45 A 20 20 75.9638 0 1 7.67949 15 20 20 90 0 1 42.3205 15 20 20 104.036 0 1 25 45 Z"/>
      <path id="shape1" fill-rule="nonzero" fill="rgb(0,0,255)" fill-opacity="0.752941" d="M 50 45 A 20 20 75.9638 0 1 32.6795 15 20 20 -180 0 1 67.3205 15 20 20 123.69 0 1 50 45 Z"/>
      <path id="shape2" fill-rule="nonzero" fill="rgb(0,255,0)" fill-opacity="0.501961" d="M 75 45 A 20 20 75.9638 0 1 57.6795 15 20 20 -180 0 1 92.3205 15 20 20 123.69 0 1 75 45 Z"/>
      <path id="shape3" fill-rule="nonzero" fill="rgb(255,255,0)" fill-opacity="0.25098" d="M 100 45 A 20 20 56.3099 0 1 82.6795 15 20 20 -180 0 1 117.321 15 20 20 -180 0 1 100 45 Z"/>
      <path id="shape4" fill-rule="nonzero" fill="rgb(255,0,0)" fill-opacity="0.12549" d="M 125 45 A 20 20 56.3099 0 1 107.679 15 20 20 -180 0 1 142.321 15 20 20 -170.538 0 1 125 45 Z"/>
    </g>
  </g>
</svg>
