<?xml version="1.0" standalone="no"?>
<svg
  xmlns:xlink="http://www.w3.org/1999/xlink"
  xmlns:dc="http://purl.org/dc/elements/1.1/"
  xmlns:cc="http://creativecommons.org/ns#"
  xmlns:rdf="http://www.w3.org/1999/02/22-rdf-syntax-ns#"
  xmlns:svg="http://www.w3.org/2000/svg"
  xmlns="http://www.w3.org/2000/svg"
  version="1.1"
  preserveAspectRatio="none"
  width="200" height="200"
  viewBox="0 0 200 200">
  <defs>
    <radialGradient id="gradient0" gradientUnits="userSpaceOnUse" cx="100" cy="100" fx="150" fy="100" r="100" spreadMethod="pad">
      <stop offset="0" stop-color="red"/>
      <stop offset="1" stop-color="blue"/>
    </radialGradient>
    <radialGradient id="gradient1" gradientUnits="userSpaceOnUse" cx="100" cy="100" fx="50" fy="100" r="100" spreadMethod="pad">
      <stop offset="0" stop-color="black"/>
      <stop offset="1" stop-color="lime"/>
    </radialGradient>
  </defs>
  <g transform="matrix(1,0,0,-1,0,200)"> <!-- invert y -->
    <g> <!-- scene-transformation -->
      <path id="shape0" fill-rule="nonzero" fill="url(#gradient0)" d="M 100 200 A 100 100 0 0 1 13.3975 50 100 100 0 0 1 186.603 50 100 100 0 0 1 100 200 Z"/>
      <path id="shape1" fill-rule="nonzero" fill="url(#gradient1)" fill-opacity="0.501961" d="M 100 200 A 100 100 0 0 1 13.3975 50 100 100 0 0 1 186.603 50 100 100 0 0 1 100 200 Z"/>
    </g>
  </g>
</svg>
